<svg width="10" height="10" viewBox="0 0 10 10" fill="none" xmlns="http://www.w3.org/2000/svg">
<g clip-path="url(#clip0_817_9471)">
<path d="M9.99975 2.8459C10.0001 2.90074 9.98956 2.9551 9.96882 3.00586C9.94809 3.05663 9.91754 3.1028 9.87892 3.14174L6.47475 6.5459C6.28123 6.73991 6.05133 6.89384 5.79823 6.99887C5.54512 7.1039 5.27378 7.15796 4.99975 7.15796C4.72572 7.15796 4.45438 7.1039 4.20128 6.99887C3.94817 6.89384 3.71828 6.73991 3.52475 6.5459L0.120585 3.14174C0.0817355 3.10289 0.0509185 3.05676 0.0298933 3.00601C0.00886819 2.95525 -0.00195331 2.90084 -0.00195331 2.8459C-0.00195332 2.79096 0.00886818 2.73656 0.0298933 2.6858C0.0509185 2.63504 0.0817355 2.58892 0.120585 2.55007C0.159434 2.51122 0.205555 2.4804 0.256314 2.45938C0.307074 2.43835 0.361477 2.42753 0.416418 2.42753C0.47136 2.42753 0.525763 2.43835 0.576522 2.45938C0.627281 2.4804 0.673402 2.51122 0.712252 2.55007L4.11642 5.95423C4.35079 6.18832 4.6685 6.3198 4.99975 6.3198C5.331 6.3198 5.64871 6.18832 5.88309 5.95423L9.28725 2.55007C9.32599 2.51101 9.37207 2.48002 9.42285 2.45886C9.47362 2.43771 9.52808 2.42682 9.58309 2.42682C9.63809 2.42682 9.69255 2.43771 9.74333 2.45886C9.7941 2.48002 9.84018 2.51101 9.87892 2.55007C9.91754 2.589 9.94809 2.63517 9.96882 2.68594C9.98956 2.73671 10.0001 2.79107 9.99975 2.8459Z" fill="black"/>
</g>
<defs>
<clipPath id="clip0_817_9471">
<rect width="10" height="10" fill="white" transform="translate(0 10) rotate(-90)"/>
</clipPath>
</defs>
</svg>
