<svg width="27" height="13" viewBox="0 0 27 13" fill="none" xmlns="http://www.w3.org/2000/svg">
<path d="M1.5 5.75C1.08579 5.75 0.75 6.08579 0.75 6.5C0.75 6.91421 1.08579 7.25 1.5 7.25L1.5 5.75ZM26.0303 7.03033C26.3232 6.73743 26.3232 6.26256 26.0303 5.96967L21.2574 1.1967C20.9645 0.903804 20.4896 0.903804 20.1967 1.1967C19.9038 1.48959 19.9038 1.96446 20.1967 2.25736L24.4393 6.5L20.1967 10.7426C19.9038 11.0355 19.9038 11.5104 20.1967 11.8033C20.4896 12.0962 20.9645 12.0962 21.2574 11.8033L26.0303 7.03033ZM1.5 7.25L25.5 7.25L25.5 5.75L1.5 5.75L1.5 7.25Z" fill="#2780E6"/>
</svg>
