<svg width="24" height="24" viewBox="0 0 24 24" fill="none" xmlns="http://www.w3.org/2000/svg">
<mask id="mask0_792_6719" style="mask-type:alpha" maskUnits="userSpaceOnUse" x="0" y="0" width="24" height="24">
<rect width="24" height="24" fill="#D9D9D9"/>
</mask>
<g mask="url(#mask0_792_6719)">
<path d="M5.61538 20C5.16794 20 4.78685 19.8426 4.4721 19.5279C4.15737 19.2131 4 18.8321 4 18.3846V5.61537C4 5.16794 4.15737 4.78685 4.4721 4.4721C4.78685 4.15737 5.16794 4 5.61538 4H10.3154C10.2244 3.48973 10.3465 3.02883 10.6817 2.6173C11.017 2.20577 11.4564 2 12 2C12.5564 2 13.0023 2.20577 13.3375 2.6173C13.6728 3.02883 13.7885 3.48973 13.6846 4H18.3846C18.8321 4 19.2132 4.15737 19.5279 4.4721C19.8426 4.78685 20 5.16794 20 5.61537V18.3846C20 18.8321 19.8426 19.2131 19.5279 19.5279C19.2132 19.8426 18.8321 20 18.3846 20H5.61538ZM5.61538 19H18.3846C18.5385 19 18.6795 18.9359 18.8077 18.8077C18.9359 18.6795 19 18.5385 19 18.3846V5.61537C19 5.46154 18.9359 5.32052 18.8077 5.1923C18.6795 5.0641 18.5385 5 18.3846 5H5.61538C5.46154 5 5.32052 5.0641 5.1923 5.1923C5.0641 5.32052 5 5.46154 5 5.61537V18.3846C5 18.5385 5.0641 18.6795 5.1923 18.8077C5.32052 18.9359 5.46154 19 5.61538 19ZM7.5 16.2692H13.5V15.2692H7.5V16.2692ZM7.5 12.5H16.5V11.5H7.5V12.5ZM7.5 8.73078H16.5V7.73078H7.5V8.73078ZM12 4.4423C12.2167 4.4423 12.3958 4.37147 12.5375 4.2298C12.6792 4.08813 12.75 3.90897 12.75 3.6923C12.75 3.47563 12.6792 3.29647 12.5375 3.1548C12.3958 3.01313 12.2167 2.9423 12 2.9423C11.7833 2.9423 11.6042 3.01313 11.4625 3.1548C11.3208 3.29647 11.25 3.47563 11.25 3.6923C11.25 3.90897 11.3208 4.08813 11.4625 4.2298C11.6042 4.37147 11.7833 4.4423 12 4.4423Z" fill="#F7FAFF"/>
</g>
</svg>
