<svg width="24" height="24" viewBox="0 0 24 24" fill="none" xmlns="http://www.w3.org/2000/svg">
<mask id="mask0_792_6729" style="mask-type:alpha" maskUnits="userSpaceOnUse" x="0" y="0" width="24" height="24">
<rect width="24" height="24" fill="#D9D9D9"/>
</mask>
<g mask="url(#mask0_792_6729)">
<path d="M4.61538 20C4.15513 20 3.77083 19.8458 3.4625 19.5375C3.15417 19.2292 3 18.8449 3 18.3846V8.61538C3 8.15513 3.15417 7.77083 3.4625 7.4625C3.77083 7.15417 4.15513 7 4.61538 7H9V5.61537C9 5.15512 9.15417 4.77083 9.4625 4.4625C9.77083 4.15417 10.1551 4 10.6154 4H13.3846C13.8449 4 14.2292 4.15417 14.5375 4.4625C14.8458 4.77083 15 5.15512 15 5.61537V7H19.3846C19.8449 7 20.2292 7.15417 20.5375 7.4625C20.8458 7.77083 21 8.15513 21 8.61538V18.3846C21 18.8449 20.8458 19.2292 20.5375 19.5375C20.2292 19.8458 19.8449 20 19.3846 20H4.61538ZM10 7H14V5.61537C14 5.46152 13.9359 5.3205 13.8077 5.1923C13.6795 5.0641 13.5385 5 13.3846 5H10.6154C10.4615 5 10.3205 5.0641 10.1923 5.1923C10.0641 5.3205 10 5.46152 10 5.61537V7ZM20 14.5H14V16H10V14.5H4V18.3846C4 18.5385 4.0641 18.6795 4.1923 18.8077C4.32052 18.9359 4.46154 19 4.61538 19H19.3846C19.5385 19 19.6795 18.9359 19.8077 18.8077C19.9359 18.6795 20 18.5385 20 18.3846V14.5ZM11 15H13V13H11V15ZM4 13.5H10V12H14V13.5H20V8.61538C20 8.46154 19.9359 8.32052 19.8077 8.1923C19.6795 8.0641 19.5385 8 19.3846 8H4.61538C4.46154 8 4.32052 8.0641 4.1923 8.1923C4.0641 8.32052 4 8.46154 4 8.61538V13.5Z" fill="#F7FAFF"/>
</g>
</svg>
