<svg width="24" height="24" viewBox="0 0 24 24" fill="none" xmlns="http://www.w3.org/2000/svg">
<mask id="mask0_792_6724" style="mask-type:alpha" maskUnits="userSpaceOnUse" x="0" y="0" width="24" height="24">
<rect width="24" height="24" fill="#D9D9D9"/>
</mask>
<g mask="url(#mask0_792_6724)">
<path d="M18.465 20.975C18.3573 20.975 18.258 20.9574 18.1669 20.9222C18.0759 20.8869 17.9868 20.8257 17.8996 20.7385L12.915 15.7731C12.8278 15.686 12.7666 15.5969 12.7314 15.5058C12.6961 15.4148 12.6785 15.3154 12.6785 15.2077C12.6785 15.1 12.6961 15.0007 12.7314 14.9097C12.7666 14.8186 12.8278 14.7295 12.915 14.6423L14.5785 12.9789C14.6657 12.8917 14.7548 12.8305 14.8458 12.7952C14.9368 12.76 15.0362 12.7423 15.1439 12.7423C15.2516 12.7423 15.3509 12.76 15.442 12.7952C15.533 12.8305 15.6221 12.8917 15.7093 12.9789L20.6939 17.9635C20.781 18.0507 20.8423 18.1398 20.8775 18.2308C20.9128 18.3218 20.9304 18.4212 20.9304 18.5289C20.9304 18.6366 20.9128 18.7359 20.8775 18.827C20.8423 18.918 20.781 19.0071 20.6939 19.0943L19.0304 20.7385C18.9432 20.8257 18.8541 20.8869 18.7631 20.9222C18.6721 20.9574 18.5727 20.975 18.465 20.975ZM18.465 19.927L19.8631 18.5289L15.1496 13.8154L13.7516 15.2135L18.465 19.927ZM5.50926 20.9808C5.40156 20.9808 5.30124 20.9622 5.20829 20.925C5.11534 20.8879 5.02527 20.8257 4.93809 20.7385L3.28041 19.1C3.19323 19.0129 3.13104 18.9228 3.09386 18.8298C3.05668 18.7369 3.03809 18.6366 3.03809 18.5289C3.03809 18.4212 3.05668 18.3186 3.09386 18.2212C3.13104 18.1238 3.19323 18.0315 3.28041 17.9443L8.42656 12.7981H10.5131L11.2862 12.025L7.04579 7.78467H5.62079L3.09579 5.25967L5.22849 3.12697L7.75349 5.65197V7.07697L11.9939 11.3173L15.0093 8.30197L13.165 6.45774L14.2958 5.32697H12.0285L11.6169 4.93467L14.4554 2.09619L14.8477 2.48849V4.77504L15.9785 3.64427L19.9516 7.57889C20.1964 7.81094 20.3778 8.07728 20.4958 8.37792C20.6137 8.67857 20.6727 8.99684 20.6727 9.33274C20.6727 9.57889 20.6362 9.81799 20.5631 10.05C20.49 10.2821 20.3823 10.5013 20.24 10.7077L18.1919 8.65967L16.7727 10.0789L15.7035 9.00967L11.2016 13.5116V15.6308L6.07464 20.7385C5.98745 20.8257 5.89835 20.8879 5.80734 20.925C5.7163 20.9622 5.61694 20.9808 5.50926 20.9808ZM5.50926 19.9077L10.4323 14.9847V13.5866H9.03426L4.11119 18.5097L5.50926 19.9077ZM5.50926 19.9077L4.11119 18.5097L4.81309 19.2058L5.50926 19.9077Z" fill="#F7FAFF"/>
</g>
</svg>
