<svg width="20" height="20" viewBox="0 0 20 20" fill="none" xmlns="http://www.w3.org/2000/svg">
<path d="M10.1599 18.8049C10.64 19.9393 12.4691 20.462 13.5993 19.4904C13.8293 19.2924 14.0594 19.0788 14.2143 18.888C14.6675 18.3303 14.8579 17.5958 14.9277 16.8804C14.9989 16.1512 14.9506 15.3687 14.8598 14.6604C14.7685 13.9493 14.6321 13.2968 14.5188 12.823C14.514 12.8024 14.509 12.7822 14.5042 12.7624H15.7542C18.4024 12.7624 20.404 10.7948 19.9303 8.65718L18.9627 4.29076C18.2949 1.27749 14.6249 -0.620044 11.0233 0.18579L3.10053 1.9585C1.80796 2.24771 0.825505 3.11122 0.562767 4.18904L0.0632682 6.23798C-0.329664 7.84981 1.17265 9.20763 2.77022 9.7257C3.22662 9.87372 3.63939 10.0615 3.95967 10.2946C6.37354 12.0514 7.24875 13.4555 8.74798 15.9231C9.24932 16.7483 9.76383 17.8691 10.1599 18.8049ZM12.9394 12.3229L12.94 12.3247L12.9425 12.3332L12.9531 12.3693C12.9625 12.4016 12.9763 12.4501 12.9937 12.5129C13.0282 12.6385 13.0766 12.8212 13.1304 13.0463C13.2382 13.4975 13.3671 14.1147 13.4527 14.7819C13.5387 15.452 13.5789 16.1567 13.5174 16.7878C13.4545 17.4326 13.2913 17.9315 13.037 18.2442C12.9534 18.3471 12.7941 18.5012 12.5756 18.689C12.2942 18.9309 11.6871 18.8746 11.4965 18.4242C11.0967 17.4796 10.5581 16.3005 10.0142 15.4054C8.50477 12.9208 7.53008 11.3415 4.8986 9.42633C4.41709 9.07589 3.84512 8.82614 3.29032 8.64622C2.04477 8.2423 1.24402 7.3132 1.45064 6.46562L1.95014 4.41668C2.10779 3.77 2.69726 3.25188 3.47279 3.07836L11.3957 1.30565C14.1968 0.678891 17.0512 2.15475 17.5706 4.4984L18.5384 8.86481C18.8542 10.2899 17.5197 11.6016 15.7542 11.6016H13.6256C13.4079 11.6016 13.2021 11.6839 13.068 11.8248C12.934 11.9656 12.8866 12.1495 12.9394 12.3229Z" fill="#212121"/>
</svg>
