<svg width="20" height="20" viewBox="0 0 20 20" fill="none" xmlns="http://www.w3.org/2000/svg">
<path d="M9.95678 1.31049C10.3092 0.565735 11.2964 -0.234273 12.5608 0.064007C13.5553 0.298598 14.2014 0.808963 14.5706 1.48887C14.9148 2.12259 14.9993 2.86854 15.0153 3.57942C15.0327 4.34408 14.8445 5.26147 14.6231 6.06379C14.5198 6.43779 14.4061 6.79828 14.2951 7.12234H16.6283C18.8773 7.12234 20.495 8.95649 19.8614 10.7879L17.563 17.4314C16.8989 19.3508 14.5082 20.4342 12.2596 19.8347L3.23626 17.4291C2.24731 17.1654 1.45637 16.5301 1.09179 15.7067L0.215719 13.7277C-0.359826 12.4276 0.248403 10.9644 1.6578 10.2587L4.81147 8.67957C4.81775 8.67584 4.82685 8.67032 4.83868 8.66293C4.87333 8.64127 4.93134 8.60347 5.00936 8.54732C5.16533 8.43507 5.40179 8.2491 5.69192 7.97134C6.27157 7.41643 7.06991 6.49096 7.86889 5.04788C8.21402 4.42447 8.50441 3.93439 8.76812 3.48932C9.1944 2.7699 9.55104 2.16802 9.95678 1.31049ZM5.71882 9.88478C5.70925 9.88999 5.6996 9.89509 5.68981 9.89998L2.51387 11.4903C1.80917 11.8431 1.50506 12.5747 1.79283 13.2248L2.66888 15.2038C2.85118 15.6154 3.24665 15.9331 3.74113 16.065L12.7645 18.4705C14.1137 18.8302 15.548 18.1801 15.9465 17.0285L18.2448 10.385C18.5617 9.46933 17.7527 8.55225 16.6283 8.55225H13.1425C12.869 8.55225 12.6124 8.43949 12.4545 8.24986C12.2967 8.06021 12.2572 7.81731 12.3486 7.59846C12.517 7.19511 12.7733 6.4963 12.9827 5.73763C13.1952 4.96811 13.3442 4.19001 13.3309 3.60692C13.3158 2.93727 13.2321 2.44016 13.0406 2.08743C12.8741 1.78086 12.6168 1.56133 12.1097 1.4417C12.0371 1.42457 11.9524 1.42957 11.8413 1.49147C11.72 1.5591 11.5958 1.6835 11.5202 1.84336C11.0928 2.74669 10.6839 3.43856 10.2313 4.20433C9.97055 4.6455 9.69531 5.11121 9.39367 5.65601C8.52789 7.21978 7.64148 8.26044 6.95257 8.91994C6.60842 9.24939 6.31465 9.4827 6.09894 9.63794C5.99113 9.71553 5.90295 9.77351 5.83788 9.81421C5.80535 9.83454 5.7786 9.85054 5.75808 9.86251L5.73203 9.87744L5.72261 9.88269L5.71882 9.88478Z" fill="#212121"/>
</svg>
