<svg width="24" height="24" viewBox="0 0 24 24" fill="none" xmlns="http://www.w3.org/2000/svg">
<path d="M23.1309 11.5178L19.6938 4.65881C19.855 4.65021 20.0159 4.64147 20.1766 4.6326C20.3474 4.62289 20.508 4.5482 20.6254 4.42385C20.7429 4.2995 20.8084 4.13491 20.8084 3.96384C20.8084 3.79277 20.7429 3.62819 20.6254 3.50384C20.508 3.37949 20.3474 3.3048 20.1766 3.29508C18.9208 3.2231 17.665 3.18202 16.4093 3.1519C14.9431 3.11787 13.4768 3.1017 12.0106 3.10339H11.9895C10.5232 3.10222 9.05702 3.11839 7.59079 3.1519C6.33503 3.18202 5.07927 3.2231 3.82351 3.29508C3.65278 3.30488 3.49225 3.3796 3.37484 3.50394C3.25743 3.62829 3.19202 3.79283 3.19202 3.96384C3.19202 4.13486 3.25743 4.2994 3.37484 4.42374C3.49225 4.54808 3.65278 4.62281 3.82351 4.6326C3.9843 4.6416 4.14521 4.65034 4.30626 4.65881L0.869152 11.5178H0.524902V12.2517C0.524919 12.8872 0.747542 13.5026 1.1541 13.9911C1.56067 14.4796 2.12548 14.8102 2.75045 14.9255C2.75749 14.9271 2.76413 14.9283 2.77079 14.9294C3.57745 15.0758 6.123 15.0758 6.92966 14.9294C6.93631 14.9283 6.94335 14.9271 6.95 14.9255C7.57497 14.8102 8.13979 14.4796 8.54635 13.9911C8.95292 13.5026 9.17554 12.8872 9.17556 12.2517V11.5178H8.83129L5.41962 4.7085C6.14335 4.73705 6.86707 4.75818 7.5908 4.77578C8.72254 4.80199 9.85456 4.81738 10.9868 4.82195L10.0206 17.9276C9.32084 17.9456 8.65583 18.2362 8.1673 18.7374C7.67877 19.2387 7.40536 19.9109 7.40536 20.6109V20.8976H16.5947V20.6109C16.5947 19.9109 16.3213 19.2387 15.8328 18.7374C15.3442 18.2362 14.6792 17.9456 13.9795 17.9276L13.0133 4.82194C14.1454 4.81686 15.2774 4.80147 16.4093 4.77578C17.133 4.75818 17.8567 4.73705 18.5805 4.7085L15.1688 11.5178H14.8245V12.2517C14.8245 12.8872 15.0472 13.5026 15.4537 13.9911C15.8603 14.4796 16.4251 14.8102 17.0501 14.9255C17.0567 14.9271 17.0638 14.9283 17.0704 14.9294C17.8771 15.0758 20.4226 15.0758 21.2293 14.9294C21.2359 14.9283 21.2426 14.9271 21.2496 14.9255C21.8746 14.8102 22.4394 14.4796 22.846 13.9911C23.2525 13.5026 23.4752 12.8872 23.4752 12.2517V11.5178H23.1309ZM7.79109 11.5178H1.90975L4.85042 5.64895L7.79109 11.5178ZM16.209 11.5178L19.1497 5.64895L22.0903 11.5178H16.209Z" fill="#207DE9"/>
</svg>
