<svg width="24" height="24" viewBox="0 0 24 24" fill="none" xmlns="http://www.w3.org/2000/svg">
<g clip-path="url(#clip0_635_6109)">
<path d="M17.4995 0.916992C16.3734 0.934507 15.2719 1.24885 14.3062 1.82826C13.3405 2.40768 12.5448 3.23166 11.9995 4.21699C11.4541 3.23166 10.6584 2.40768 9.69271 1.82826C8.72701 1.24885 7.62552 0.934507 6.49947 0.916992C4.70441 0.994983 3.01318 1.78025 1.79525 3.10122C0.577329 4.4222 -0.0682805 6.17152 -0.000529991 7.96699C-0.000529991 14.742 10.9555 22.567 11.4215 22.899L11.9995 23.308L12.5775 22.899C13.0435 22.569 23.9995 14.742 23.9995 7.96699C24.0672 6.17152 23.4216 4.4222 22.2037 3.10122C20.9858 1.78025 19.2945 0.994983 17.4995 0.916992ZM11.9995 20.846C8.74647 18.416 1.99947 12.446 1.99947 7.96699C1.93111 6.70171 2.36584 5.46072 3.20883 4.51469C4.05183 3.56866 5.2347 2.99434 6.49947 2.91699C7.76424 2.99434 8.94711 3.56866 9.79011 4.51469C10.6331 5.46072 11.0678 6.70171 10.9995 7.96699H12.9995C12.9311 6.70171 13.3658 5.46072 14.2088 4.51469C15.0518 3.56866 16.2347 2.99434 17.4995 2.91699C18.7642 2.99434 19.9471 3.56866 20.7901 4.51469C21.6331 5.46072 22.0678 6.70171 21.9995 7.96699C21.9995 12.448 15.2525 18.416 11.9995 20.846Z" fill="#207DE9"/>
</g>
<defs>
<clipPath id="clip0_635_6109">
<rect width="24" height="24" fill="white"/>
</clipPath>
</defs>
</svg>
