<svg width="14" height="15" viewBox="0 0 14 15" fill="none" xmlns="http://www.w3.org/2000/svg">
<path d="M6.23636 13.7364C6.23636 14.1581 6.57826 14.5 7 14.5C7.42174 14.5 7.76364 14.1581 7.76364 13.7364V8.26364H13.2364C13.6581 8.26364 14 7.92174 14 7.5C14 7.07826 13.6581 6.73636 13.2364 6.73636H7.76364V1.26364C7.76364 0.841892 7.42174 0.5 7 0.5C6.57826 0.5 6.23636 0.841892 6.23636 1.26364V6.73636H0.763636C0.341892 6.73636 0 7.07826 0 7.5C0 7.92174 0.341892 8.26364 0.763636 8.26364H6.23636V13.7364Z" fill="#A9B4BC"/>
</svg>
