<svg width="18" height="18" viewBox="0 0 18 18" fill="none" xmlns="http://www.w3.org/2000/svg">
<path d="M17.568 6.58021V11.9773H16.6778H16.1736L16.2511 12.4755C16.2645 12.5614 16.2716 12.6482 16.2725 12.7351C16.272 13.2211 16.0787 13.687 15.735 14.0307C15.3909 14.3748 14.9241 14.5682 14.4373 14.5682C13.9506 14.5682 13.4838 14.3748 13.1397 14.0307C12.796 13.687 12.6027 13.2211 12.6021 12.7351C12.6031 12.6482 12.6102 12.5614 12.6236 12.4755L12.701 11.9773H12.1969H8.25748H7.75333L7.8308 12.4755C7.84415 12.5614 7.85131 12.6481 7.85222 12.735C7.85169 13.221 7.6584 13.687 7.31471 14.0307C6.97054 14.3748 6.50375 14.5682 6.01703 14.5682C5.5303 14.5682 5.06352 14.3748 4.71935 14.0307C4.37566 13.687 4.18237 13.221 4.18183 12.735C4.18274 12.6481 4.18991 12.5614 4.20326 12.4755L4.28073 11.9773H3.77658H2.8864V2.69339C2.8864 2.29256 3.04563 1.90815 3.32906 1.62472C3.61249 1.34128 3.99691 1.18205 4.39774 1.18205H11.5226C11.9234 1.18205 12.3079 1.34128 12.5913 1.62472L12.8966 1.31938L12.5913 1.62472C12.8747 1.90815 13.034 2.29256 13.034 2.69339V3.34111V3.77292H13.4658H14.7611C15.5052 3.77391 16.2186 4.06995 16.7447 4.59614C17.271 5.12241 17.5671 5.83594 17.568 6.58021ZM16.7043 7.65922H17.1362V7.22741V6.57969C17.1362 5.94981 16.8859 5.34573 16.4405 4.90034C15.9952 4.45495 15.3911 4.20473 14.7612 4.20473H13.4658H13.034V4.63654V7.22741V7.65922H13.4658H16.7043ZM7.42042 12.733L7.42041 12.7314C7.41983 12.5687 7.38982 12.4074 7.33185 12.2553L7.22588 11.9773H6.92837H5.10569H4.80818L4.7022 12.2553C4.64423 12.4074 4.61423 12.5687 4.61364 12.7314V12.733C4.61364 13.1052 4.7615 13.4621 5.02468 13.7253C5.28787 13.9885 5.64483 14.1364 6.01703 14.1364C6.38923 14.1364 6.74619 13.9885 7.00937 13.7253C7.27256 13.4622 7.42041 13.1052 7.42042 12.733ZM12.1703 11.5455H12.6021V11.1137V2.69339C12.6021 2.40708 12.4884 2.1325 12.286 1.93005C12.0835 1.7276 11.8089 1.61387 11.5226 1.61387H4.39774C4.11143 1.61387 3.83685 1.7276 3.6344 1.93005C3.43195 2.1325 3.31821 2.40708 3.31821 2.69339V11.1137V11.5455H3.75002H12.1703ZM15.8407 12.733L15.8407 12.7319C15.8403 12.5688 15.8102 12.4072 15.752 12.2549L15.6459 11.9773H15.3487H13.526H13.2288L13.1227 12.2549C13.0644 12.4072 13.0344 12.5688 13.034 12.7319V12.733C13.034 13.1052 13.1818 13.4622 13.445 13.7253C13.7082 13.9885 14.0651 14.1364 14.4373 14.1364C14.8095 14.1364 15.1665 13.9885 15.4297 13.7253C15.6929 13.4622 15.8407 13.1052 15.8407 12.733ZM13.034 11.1137V11.5455H13.4658H16.7043H17.1362V11.1137V8.52284V8.09103H16.7043H13.4658H13.034V8.52284V11.1137Z" fill="black" stroke="black" stroke-width="0.863621"/>
<path d="M5.5 4H1.5" stroke="black" stroke-linecap="round"/>
<path d="M6.5 6H0.5" stroke="black" stroke-linecap="round"/>
<path d="M8 8H1" stroke="black" stroke-linecap="round"/>
</svg>
