<svg width="42" height="42" viewBox="0 0 42 42" fill="none" xmlns="http://www.w3.org/2000/svg">
<mask id="mask0_535_9566" style="mask-type:alpha" maskUnits="userSpaceOnUse" x="0" y="0" width="42" height="42">
<rect width="42" height="42" fill="#D9D9D9"/>
</mask>
<g mask="url(#mask0_535_9566)">
<path d="M10.4996 33.6539C9.90724 33.6539 9.4002 33.443 8.97842 33.0212C8.55661 32.5994 8.3457 32.0924 8.3457 31.5C8.3457 30.9077 8.55661 30.4007 8.97842 29.9789C9.4002 29.5571 9.90724 29.3462 10.4996 29.3462C11.0919 29.3462 11.5989 29.5571 12.0207 29.9789C12.4425 30.4007 12.6534 30.9077 12.6534 31.5C12.6534 32.0924 12.4425 32.5994 12.0207 33.0212C11.5989 33.443 11.0919 33.6539 10.4996 33.6539ZM20.9996 33.6539C20.4072 33.6539 19.9002 33.443 19.4784 33.0212C19.0566 32.5994 18.8457 32.0924 18.8457 31.5C18.8457 30.9077 19.0566 30.4007 19.4784 29.9789C19.9002 29.5571 20.4072 29.3462 20.9996 29.3462C21.5919 29.3462 22.0989 29.5571 22.5207 29.9789C22.9425 30.4007 23.1534 30.9077 23.1534 31.5C23.1534 32.0924 22.9425 32.5994 22.5207 33.0212C22.0989 33.443 21.5919 33.6539 20.9996 33.6539ZM31.4996 33.6539C30.9072 33.6539 30.4002 33.443 29.9784 33.0212C29.5566 32.5994 29.3457 32.0924 29.3457 31.5C29.3457 30.9077 29.5566 30.4007 29.9784 29.9789C30.4002 29.5571 30.9072 29.3462 31.4996 29.3462C32.0919 29.3462 32.5989 29.5571 33.0207 29.9789C33.4425 30.4007 33.6534 30.9077 33.6534 31.5C33.6534 32.0924 33.4425 32.5994 33.0207 33.0212C32.5989 33.443 32.0919 33.6539 31.4996 33.6539ZM10.4996 23.1539C9.90724 23.1539 9.4002 22.943 8.97842 22.5212C8.55661 22.0994 8.3457 21.5924 8.3457 21C8.3457 20.4077 8.55661 19.9007 8.97842 19.4789C9.4002 19.0571 9.90724 18.8462 10.4996 18.8462C11.0919 18.8462 11.5989 19.0571 12.0207 19.4789C12.4425 19.9007 12.6534 20.4077 12.6534 21C12.6534 21.5924 12.4425 22.0994 12.0207 22.5212C11.5989 22.943 11.0919 23.1539 10.4996 23.1539ZM20.9996 23.1539C20.4072 23.1539 19.9002 22.943 19.4784 22.5212C19.0566 22.0994 18.8457 21.5924 18.8457 21C18.8457 20.4077 19.0566 19.9007 19.4784 19.4789C19.9002 19.0571 20.4072 18.8462 20.9996 18.8462C21.5919 18.8462 22.0989 19.0571 22.5207 19.4789C22.9425 19.9007 23.1534 20.4077 23.1534 21C23.1534 21.5924 22.9425 22.0994 22.5207 22.5212C22.0989 22.943 21.5919 23.1539 20.9996 23.1539ZM31.4996 23.1539C30.9072 23.1539 30.4002 22.943 29.9784 22.5212C29.5566 22.0994 29.3457 21.5924 29.3457 21C29.3457 20.4077 29.5566 19.9007 29.9784 19.4789C30.4002 19.0571 30.9072 18.8462 31.4996 18.8462C32.0919 18.8462 32.5989 19.0571 33.0207 19.4789C33.4425 19.9007 33.6534 20.4077 33.6534 21C33.6534 21.5924 33.4425 22.0994 33.0207 22.5212C32.5989 22.943 32.0919 23.1539 31.4996 23.1539ZM10.4996 12.6539C9.90724 12.6539 9.4002 12.443 8.97842 12.0212C8.55661 11.5994 8.3457 11.0924 8.3457 10.5C8.3457 9.90773 8.55661 9.40068 8.97842 8.97891C9.4002 8.5571 9.90724 8.34619 10.4996 8.34619C11.0919 8.34619 11.5989 8.5571 12.0207 8.97891C12.4425 9.40068 12.6534 9.90773 12.6534 10.5C12.6534 11.0924 12.4425 11.5994 12.0207 12.0212C11.5989 12.443 11.0919 12.6539 10.4996 12.6539ZM20.9996 12.6539C20.4072 12.6539 19.9002 12.443 19.4784 12.0212C19.0566 11.5994 18.8457 11.0924 18.8457 10.5C18.8457 9.90773 19.0566 9.40068 19.4784 8.97891C19.9002 8.5571 20.4072 8.34619 20.9996 8.34619C21.5919 8.34619 22.0989 8.5571 22.5207 8.97891C22.9425 9.40068 23.1534 9.90773 23.1534 10.5C23.1534 11.0924 22.9425 11.5994 22.5207 12.0212C22.0989 12.443 21.5919 12.6539 20.9996 12.6539ZM31.4996 12.6539C30.9072 12.6539 30.4002 12.443 29.9784 12.0212C29.5566 11.5994 29.3457 11.0924 29.3457 10.5C29.3457 9.90773 29.5566 9.40068 29.9784 8.97891C30.4002 8.5571 30.9072 8.34619 31.4996 8.34619C32.0919 8.34619 32.5989 8.5571 33.0207 8.97891C33.4425 9.40068 33.6534 9.90773 33.6534 10.5C33.6534 11.0924 33.4425 11.5994 33.0207 12.0212C32.5989 12.443 32.0919 12.6539 31.4996 12.6539Z" fill="#A9B4BC"/>
</g>
</svg>
