<svg width="20" height="20" viewBox="0 0 20 20" fill="none" xmlns="http://www.w3.org/2000/svg">
<path d="M19.2759 9.59802L16.4116 3.88222C16.5459 3.87505 16.68 3.86777 16.8139 3.86038C16.9562 3.85228 17.09 3.79004 17.1879 3.68642C17.2858 3.58279 17.3404 3.44564 17.3404 3.30308C17.3404 3.16052 17.2858 3.02337 17.1879 2.91974C17.09 2.81612 16.9562 2.75387 16.8139 2.74578C15.7674 2.68579 14.7209 2.65156 13.6745 2.62646C12.4526 2.5981 11.2308 2.58462 10.0089 2.58604H9.99131C8.76945 2.58506 7.5476 2.59854 6.32574 2.62646C5.27927 2.65156 4.23281 2.68579 3.18634 2.74578C3.04406 2.75394 2.91029 2.81621 2.81245 2.91983C2.71461 3.02345 2.6601 3.16057 2.6601 3.30308C2.6601 3.44559 2.71461 3.58271 2.81245 3.68633C2.91029 3.78995 3.04406 3.85222 3.18634 3.86038C3.32033 3.86788 3.45442 3.87516 3.58863 3.88222L0.724375 9.59802H0.4375V10.2096C0.437514 10.7392 0.623033 11.2521 0.961835 11.6591C1.30064 12.0662 1.77132 12.3417 2.29212 12.4378C2.29799 12.4391 2.30353 12.4401 2.30907 12.4411C2.98129 12.563 5.10258 12.563 5.7748 12.4411C5.78034 12.4401 5.7862 12.4391 5.79175 12.4378C6.31256 12.3417 6.78324 12.0662 7.12204 11.6591C7.46084 11.2521 7.64636 10.7392 7.64638 10.2096V9.59802H7.35949L4.51643 3.92363C5.11954 3.94742 5.72264 3.96503 6.32574 3.9797C7.26887 4.00154 8.21221 4.01436 9.15577 4.01817L8.35054 14.9396C7.76745 14.9545 7.21328 15.1967 6.80616 15.6144C6.39905 16.0321 6.17121 16.5923 6.17122 17.1756V17.4146H13.829V17.1756C13.829 16.5923 13.6012 16.0321 13.1941 15.6144C12.7869 15.1967 12.2328 14.9545 11.6497 14.9396L10.8445 4.01816C11.7879 4.01393 12.7312 4.0011 13.6745 3.9797C14.2776 3.96503 14.8807 3.94742 15.4838 3.92362L12.6407 9.59802H12.3538V10.2096C12.3539 10.7392 12.5394 11.2521 12.8782 11.6591C13.217 12.0662 13.6877 12.3417 14.2085 12.4378C14.214 12.4391 14.2199 12.4401 14.2254 12.4411C14.8976 12.563 17.0189 12.563 17.6912 12.4411C17.6967 12.4401 17.7022 12.4391 17.7081 12.4378C18.2289 12.3417 18.6996 12.0662 19.0384 11.6591C19.3772 11.2521 19.5627 10.7392 19.5627 10.2096V9.59802H19.2759ZM6.49266 9.59802H1.59154L4.0421 4.70733L6.49266 9.59802ZM13.5076 9.59802L15.9581 4.70733L18.4087 9.59802H13.5076Z" fill="#207DE9"/>
</svg>
