<svg width="10" height="10" viewBox="0 0 10 10" fill="none" xmlns="http://www.w3.org/2000/svg">
<g clip-path="url(#clip0_480_3891)">
<path d="M10 2.8459C10.0003 2.90074 9.9898 2.9551 9.96907 3.00586C9.94833 3.05663 9.91778 3.1028 9.87916 3.14174L6.475 6.5459C6.28147 6.73991 6.05157 6.89384 5.79847 6.99887C5.54536 7.1039 5.27403 7.15796 5 7.15796C4.72597 7.15796 4.45463 7.1039 4.20152 6.99887C3.94842 6.89384 3.71852 6.73991 3.525 6.5459L0.120829 3.14174C0.0819796 3.10289 0.0511626 3.05676 0.0301375 3.00601C0.00911233 2.95525 -0.00170917 2.90084 -0.00170917 2.8459C-0.00170918 2.79096 0.00911232 2.73656 0.0301375 2.6858C0.0511626 2.63504 0.0819796 2.58892 0.120829 2.55007C0.159678 2.51122 0.205799 2.4804 0.256559 2.45938C0.307318 2.43835 0.361721 2.42753 0.416662 2.42753C0.471604 2.42753 0.526007 2.43835 0.576766 2.45938C0.627525 2.4804 0.673646 2.51122 0.712496 2.55007L4.11666 5.95423C4.35104 6.18832 4.66875 6.3198 5 6.3198C5.33125 6.3198 5.64895 6.18832 5.88333 5.95423L9.2875 2.55007C9.32623 2.51101 9.37232 2.48002 9.42309 2.45886C9.47386 2.43771 9.52832 2.42682 9.58333 2.42682C9.63834 2.42682 9.6928 2.43771 9.74357 2.45886C9.79434 2.48002 9.84043 2.51101 9.87916 2.55007C9.91778 2.589 9.94833 2.63517 9.96907 2.68594C9.9898 2.73671 10.0003 2.79107 10 2.8459Z" fill="black"/>
</g>
<defs>
<clipPath id="clip0_480_3891">
<rect width="10" height="10" fill="white" transform="translate(0 10) rotate(-90)"/>
</clipPath>
</defs>
</svg>
