<svg width="20" height="20" viewBox="0 0 20 20" fill="none" xmlns="http://www.w3.org/2000/svg">
<path d="M9.52772 1.3587C9.68337 0.910915 10.3166 0.910914 10.4723 1.35869L12.2369 6.43529C12.3056 6.63282 12.4899 6.76676 12.699 6.77102L18.0724 6.88052C18.5464 6.89018 18.7421 7.49245 18.3643 7.77886L14.0815 11.0259C13.9148 11.1522 13.8444 11.3689 13.905 11.5691L15.4613 16.7134C15.5986 17.1671 15.0863 17.5393 14.6971 17.2686L10.2856 14.1987C10.1139 14.0793 9.88607 14.0793 9.71441 14.1987L5.30285 17.2686C4.91373 17.5393 4.40141 17.1671 4.53868 16.7134L6.09502 11.5691C6.15558 11.3689 6.08517 11.1522 5.91852 11.0259L1.63569 7.77886C1.25792 7.49246 1.45361 6.89018 1.92757 6.88052L7.301 6.77102C7.51009 6.76676 7.69443 6.63282 7.76309 6.43529L9.52772 1.3587Z" fill="#FFF500"/>
</svg>
