<svg width="40" height="40" viewBox="0 0 40 40" fill="none" xmlns="http://www.w3.org/2000/svg">
<path d="M10.7188 32.5833C10.7188 31.1056 11.9167 29.9077 13.3944 29.9077V29.9077C14.8721 29.9077 16.07 31.1056 16.07 32.5833V38.8809H10.7188V32.5833Z" fill="#38B92C"/>
<path d="M18.6367 29.4403C18.6367 27.9626 19.8346 26.7646 21.3123 26.7646V26.7646C22.79 26.7646 23.9879 27.9626 23.9879 29.4403V38.881H18.6367V29.4403Z" fill="#38B92C"/>
<path d="M26.5586 25.2325C26.5586 23.7548 27.7565 22.5569 29.2342 22.5569V22.5569C30.7119 22.5569 31.9098 23.7548 31.9098 25.2325V38.8809H26.5586V25.2325Z" fill="#38B92C"/>
<path d="M34.4766 20.6698C34.4766 19.1921 35.6745 17.9941 37.1522 17.9941V17.9941C38.6299 17.9941 39.8278 19.1921 39.8278 20.6698V38.8808H34.4766V20.6698Z" fill="#38B92C"/>
<path d="M35.2087 12.668L39.8301 15.1958V0.136719L26.064 7.66623L30.5378 10.1132C30.5087 10.1747 30.482 10.2375 30.458 10.3014C30.3694 10.4077 30.1846 10.6109 29.84 10.921C28.7243 11.9251 26.248 13.773 20.9335 16.8129C20.1937 17.2362 18.9881 17.7799 17.4064 18.4563C16.9508 18.6511 16.4676 18.8555 15.9669 19.0673C14.8015 19.5602 13.5417 20.0931 12.3172 20.6379C10.5602 21.4197 8.76333 22.2746 7.22871 23.1704C5.76877 24.0227 4.23155 25.0871 3.30367 26.3751C1.64392 28.679 1.07143 32.0385 0.837556 34.3941C0.712865 35.6501 0.671716 36.7841 0.661374 37.6033C0.656184 38.0144 0.65871 38.3499 0.662671 38.5863C0.664654 38.7045 0.667 38.7983 0.668934 38.8645L0.671432 38.9429L0.672271 38.966L0.672703 38.9772C0.672703 38.9772 0.672739 38.9781 3.34639 38.881C6.02004 38.7839 6.02007 38.7846 6.02007 38.7846L6.01973 38.775L6.01811 38.7242C6.01673 38.6769 6.01486 38.6031 6.01322 38.5058C6.00996 38.3109 6.00769 38.0228 6.01222 37.6639C6.02132 36.9433 6.05768 35.9525 6.16527 34.8689C6.39595 32.5454 6.90709 30.3663 7.72365 29.2328C7.97946 28.8777 8.68504 28.275 10.0358 27.4865C11.312 26.7416 12.8937 25.9823 14.5921 25.2266C15.7689 24.703 16.948 24.2043 18.0922 23.7204C18.6053 23.5034 19.1124 23.2889 19.6081 23.0769C21.1441 22.4201 22.6418 21.7578 23.6995 21.1528C29.1438 18.0385 31.9992 15.9702 33.5255 14.5965C34.2897 13.9089 34.7985 13.3266 35.1263 12.8045C35.1546 12.7594 35.1821 12.7139 35.2087 12.668Z" fill="#083A74"/>
</svg>
