<svg width="20" height="20" viewBox="0 0 20 20" fill="none" xmlns="http://www.w3.org/2000/svg">
<g clip-path="url(#clip0_274_1731)">
<path d="M5.68541e-06 5.83328C-0.00062755 5.72361 0.0203933 5.61489 0.0618629 5.51336C0.103334 5.41183 0.164438 5.31948 0.241674 5.24161C0.319143 5.16351 0.41131 5.10151 0.512859 5.05921C0.614408 5.0169 0.72333 4.99512 0.83334 4.99512C0.94335 4.99512 1.05227 5.0169 1.15382 5.05921C1.25537 5.10151 1.34754 5.16351 1.425 5.24161L8.23334 12.0499C8.70209 12.5181 9.33751 12.7811 10 12.7811C10.6625 12.7811 11.2979 12.5181 11.7667 12.0499L18.575 5.24162C18.7319 5.0847 18.9448 4.99654 19.1667 4.99654C19.3886 4.99654 19.6014 5.0847 19.7583 5.24162C19.9153 5.39854 20.0034 5.61136 20.0034 5.83328C20.0034 6.0552 19.9153 6.26803 19.7583 6.42495L12.95 13.2333C12.563 13.6213 12.1032 13.9292 11.597 14.1392C11.0907 14.3493 10.5481 14.4574 10 14.4574C9.45195 14.4574 8.90927 14.3493 8.40306 14.1392C7.89685 13.9292 7.43705 13.6213 7.05001 13.2333L0.241674 6.42495C0.164438 6.34708 0.103334 6.25473 0.0618629 6.1532C0.0203933 6.05167 -0.000627559 5.94295 5.68541e-06 5.83328Z" fill="#F7FAFF"/>
</g>
<defs>
<clipPath id="clip0_274_1731">
<rect width="20" height="20" fill="white" transform="translate(20) rotate(90)"/>
</clipPath>
</defs>
</svg>
