<svg width="30" height="29" viewBox="0 0 30 29" fill="none" xmlns="http://www.w3.org/2000/svg">
<path d="M0 28.3333V26.9231H14.2949V8.01817C13.5085 7.875 12.8073 7.51139 12.1912 6.92733C11.5751 6.34331 11.1848 5.61539 11.0203 4.74358H4.88246L9.74358 17.0534C9.67519 18.1147 9.17164 19.0207 8.23292 19.7714C7.29417 20.5221 6.17379 20.8974 4.87179 20.8974C3.56979 20.8974 2.44942 20.5221 1.51067 19.7714C0.571917 19.0207 0.0683611 18.1147 0 17.0534L4.88246 4.74358H1.66667V3.33333H11.0203C11.2041 2.40383 11.6599 1.6159 12.3878 0.969541C13.1158 0.32318 13.9865 0 15 0C16.0135 0 16.8843 0.32318 17.6122 0.969541C18.3401 1.6159 18.7959 2.40383 18.9797 3.33333H28.3333V4.74358H25.1389L30 17.0534C29.9316 18.1147 29.4281 19.0207 28.4893 19.7714C27.5506 20.5221 26.4302 20.8974 25.1282 20.8974C23.8262 20.8974 22.7058 20.5221 21.7671 19.7714C20.8284 19.0207 20.3248 18.1147 20.2564 17.0534L25.1389 4.74358H18.9797C18.8152 5.61539 18.4249 6.34331 17.8088 6.92733C17.1927 7.51139 16.4915 7.875 15.7051 8.01817V26.9231H30V28.3333H0ZM21.7789 16.859H28.4776L25.1282 8.35896L21.7789 16.859ZM1.52242 16.859H8.22113L4.87179 8.35896L1.52242 16.859ZM15 6.66667C15.7315 6.66667 16.3524 6.40687 16.8627 5.88729C17.373 5.36768 17.6282 4.7514 17.6282 4.03846C17.6282 3.30696 17.373 2.68606 16.8627 2.17575C16.3524 1.66542 15.7315 1.41025 15 1.41025C14.287 1.41025 13.6708 1.66542 13.1512 2.17575C12.6316 2.68606 12.3718 3.30696 12.3718 4.03846C12.3718 4.7514 12.6316 5.36768 13.1512 5.88729C13.6708 6.40687 14.287 6.66667 15 6.66667Z" fill="#083A74"/>
</svg>
