<svg width="8" height="8" viewBox="0 0 8 8" fill="none" xmlns="http://www.w3.org/2000/svg">
<g clip-path="url(#clip0_800_7644)">
<path d="M2.33331 7.9999C2.28944 8.00015 2.24596 7.99174 2.20534 7.97516C2.16473 7.95857 2.12779 7.93413 2.09665 7.90323C2.0654 7.87224 2.04061 7.83538 2.02368 7.79476C2.00676 7.75414 1.99805 7.71057 1.99805 7.66657C1.99805 7.62256 2.00676 7.57899 2.02368 7.53837C2.04061 7.49775 2.0654 7.46089 2.09665 7.4299L4.81998 4.70657C5.00725 4.51907 5.11243 4.2649 5.11243 3.9999C5.11243 3.7349 5.00725 3.48073 4.81998 3.29323L2.09665 0.569899C2.03388 0.507131 1.99862 0.422 1.99862 0.333232C1.99862 0.244465 2.03388 0.159334 2.09665 0.0965657C2.15941 0.0337978 2.24455 -0.00146484 2.33331 -0.00146484C2.42208 -0.00146484 2.50721 0.0337978 2.56998 0.0965657L5.29331 2.8199C5.44852 2.97472 5.57167 3.15864 5.65569 3.36112C5.73971 3.5636 5.78296 3.78067 5.78296 3.9999C5.78296 4.21912 5.73971 4.43619 5.65569 4.63868C5.57167 4.84116 5.44852 5.02508 5.29331 5.1799L2.56998 7.90323C2.53883 7.93413 2.50189 7.95857 2.46128 7.97516C2.42067 7.99174 2.37718 8.00015 2.33331 7.9999Z" fill="black"/>
</g>
<defs>
<clipPath id="clip0_800_7644">
<rect width="8" height="8" fill="white"/>
</clipPath>
</defs>
</svg>
