<svg width="30" height="27" viewBox="0 0 30 27" fill="none" xmlns="http://www.w3.org/2000/svg">
<path d="M15 26.7499L13.953 25.7905C11.1873 23.2633 8.9035 21.0954 7.1015 19.2867C5.2995 17.478 3.87214 15.8843 2.81942 14.5058C1.76672 13.1272 1.03364 11.884 0.620167 10.7762C0.206722 9.66831 0 8.56341 0 7.46146C0 5.37649 0.707625 3.62554 2.12288 2.20863C3.5381 0.791709 5.28774 0.083252 7.37179 0.083252C8.87321 0.083252 10.2728 0.479614 11.5705 1.27234C12.8682 2.06509 14.0114 3.22214 15 4.7435C16.0427 3.19506 17.2016 2.03124 18.4766 1.25204C19.7517 0.47285 21.1355 0.083252 22.6282 0.083252C24.7123 0.083252 26.4619 0.791709 27.8772 2.20863C29.2924 3.62554 30 5.37649 30 7.46146C30 8.56341 29.7933 9.66831 29.3798 10.7762C28.9664 11.884 28.2341 13.1257 27.183 14.5012C26.1319 15.8767 24.7063 17.4704 22.9063 19.2821C21.1062 21.0939 18.8198 23.2633 16.047 25.7905L15 26.7499ZM15 24.8504C17.7074 22.3882 19.9354 20.279 21.684 18.5228C23.4326 16.7666 24.8194 15.2354 25.8447 13.9293C26.8699 12.6231 27.5837 11.4653 27.9861 10.456C28.3885 9.4466 28.5898 8.44977 28.5898 7.46546C28.5898 5.75624 28.0228 4.3336 26.8889 3.19754C25.755 2.06152 24.3368 1.4935 22.6345 1.4935C21.2522 1.4935 19.9859 1.89361 18.8356 2.69384C17.6852 3.49403 16.6197 4.72568 15.6389 6.38879H14.3547C13.3568 4.72285 12.2847 3.49047 11.1381 2.69167C9.9916 1.89289 8.73407 1.4935 7.36554 1.4935C5.68451 1.4935 4.27171 2.06152 3.12712 3.19754C1.98254 4.3336 1.41025 5.76018 1.41025 7.47729C1.41025 8.45757 1.6126 9.45278 2.01729 10.4629C2.42199 11.4731 3.1321 12.6312 4.14762 13.9372C5.16315 15.2433 6.55126 16.7708 8.31196 18.5197C10.0727 20.2686 12.302 22.3789 15 24.8504Z" fill="#083A74"/>
</svg>
