<svg width="24" height="24" viewBox="0 0 24 24" fill="none" xmlns="http://www.w3.org/2000/svg">
<path d="M13.0211 1.00128C13.0211 0.735628 13.1267 0.48086 13.3145 0.293017C13.5023 0.105175 13.7571 -0.000353553 14.0228 -0.000353553C16.6784 0.00256279 19.2243 1.05879 21.1021 2.93658C22.9799 4.81437 24.0361 7.36036 24.0391 10.016C24.0391 10.2816 23.9335 10.5364 23.7457 10.7242C23.5578 10.9121 23.3031 11.0176 23.0374 11.0176C22.7718 11.0176 22.517 10.9121 22.3292 10.7242C22.1413 10.5364 22.0358 10.2816 22.0358 10.016C22.0334 7.8915 21.1884 5.85473 19.6862 4.35251C18.184 2.85029 16.1472 2.00529 14.0228 2.00291C13.7571 2.00291 13.5023 1.89738 13.3145 1.70954C13.1267 1.5217 13.0211 1.26693 13.0211 1.00128ZM14.0228 6.00943C15.0854 6.00943 16.1044 6.43155 16.8558 7.18292C17.6072 7.93429 18.0293 8.95336 18.0293 10.016C18.0293 10.2816 18.1348 10.5364 18.3226 10.7242C18.5105 10.9121 18.7653 11.0176 19.0309 11.0176C19.2966 11.0176 19.5513 10.9121 19.7392 10.7242C19.927 10.5364 20.0325 10.2816 20.0325 10.016C20.0309 8.42255 19.3973 6.89486 18.2706 5.76815C17.1438 4.64144 15.6162 4.00776 14.0228 4.00617C13.7571 4.00617 13.5023 4.1117 13.3145 4.29954C13.1267 4.48738 13.0211 4.74215 13.0211 5.0078C13.0211 5.27345 13.1267 5.52822 13.3145 5.71606C13.5023 5.9039 13.7571 6.00943 14.0228 6.00943ZM23.1306 16.7659C23.711 17.348 24.037 18.1365 24.037 18.9585C24.037 19.7805 23.711 20.569 23.1306 21.1511L22.2191 22.2018C14.0157 30.0556 -5.94676 10.0981 1.78583 1.86869L2.93771 0.867059C3.52042 0.302817 4.30186 -0.00931907 5.11295 -0.0018211C5.92404 0.00567687 6.69958 0.332206 7.27176 0.907124C7.30281 0.938175 9.15884 3.3491 9.15884 3.3491C9.70956 3.92767 10.0161 4.69622 10.0148 5.495C10.0135 6.29377 9.70444 7.06132 9.15182 7.63808L7.99194 9.09646C8.63383 10.6561 9.57758 12.0736 10.769 13.2673C11.9604 14.4611 13.3759 15.4077 14.9342 16.0528L16.4016 14.8859C16.9785 14.3337 17.7459 14.025 18.5444 14.0239C19.3429 14.0227 20.1112 14.3293 20.6896 14.8799C20.6896 14.8799 23.0995 16.7349 23.1306 16.7659ZM21.7523 18.2223C21.7523 18.2223 19.3554 16.3783 19.3244 16.3473C19.118 16.1427 18.8392 16.0279 18.5486 16.0279C18.258 16.0279 17.9792 16.1427 17.7729 16.3473C17.7458 16.3753 15.7255 17.9849 15.7255 17.9849C15.5894 18.0933 15.4274 18.1643 15.2554 18.191C15.0835 18.2177 14.9075 18.1992 14.7449 18.1372C12.7261 17.3855 10.8924 16.2088 9.36801 14.6866C7.84363 13.1645 6.66417 11.3325 5.90954 9.31482C5.84263 9.15 5.82082 8.97034 5.84634 8.79431C5.87187 8.61827 5.94381 8.45221 6.05478 8.31318C6.05478 8.31318 7.6644 6.29189 7.69145 6.26585C7.89605 6.0595 8.01084 5.78068 8.01084 5.49009C8.01084 5.1995 7.89605 4.92067 7.69145 4.71432C7.6604 4.68427 5.81639 2.28537 5.81639 2.28537C5.60695 2.09757 5.33361 1.99699 5.0524 2.00426C4.77118 2.01152 4.5034 2.12607 4.30393 2.32443L3.15205 3.32606C-2.49915 10.1211 14.8 26.4607 20.7547 20.8336L21.6672 19.7819C21.881 19.5838 22.0095 19.3103 22.0254 19.0193C22.0412 18.7283 21.9433 18.4425 21.7523 18.2223Z" fill="#00448F"/>
</svg>
