<svg width="18" height="18" viewBox="0 0 18 18" fill="none" xmlns="http://www.w3.org/2000/svg">
<path d="M9 18C7.76153 18 6.59487 17.7631 5.5 17.2894C4.40513 16.8157 3.45161 16.1728 2.63943 15.3606C1.82724 14.5484 1.18429 13.5949 0.710575 12.5C0.236858 11.4051 0 10.2385 0 9C0 7.75768 0.236858 6.59006 0.710575 5.49713C1.18429 4.40418 1.82724 3.45161 2.63943 2.63943C3.45161 1.82724 4.40513 1.18429 5.5 0.710574C6.59487 0.236858 7.76153 0 9 0C10.2423 0 11.4099 0.236858 12.5029 0.710574C13.5958 1.18429 14.5484 1.82724 15.3606 2.63943C16.1728 3.45161 16.8157 4.40418 17.2894 5.49713C17.7631 6.59006 18 7.75768 18 9C18 10.2385 17.7631 11.4051 17.2894 12.5C16.8157 13.5949 16.1728 14.5484 15.3606 15.3606C14.5484 16.1728 13.5958 16.8157 12.5029 17.2894C11.4099 17.7631 10.2423 18 9 18ZM9 17.0077C9.58718 16.2538 10.0712 15.5135 10.4519 14.7866C10.8327 14.0596 11.1423 13.2462 11.3808 12.3462H6.61923C6.88333 13.2974 7.19935 14.1365 7.5673 14.8635C7.93525 15.5904 8.41282 16.3051 9 17.0077ZM7.72692 16.8577C7.26026 16.3077 6.83429 15.6279 6.44903 14.8183C6.06378 14.0087 5.77692 13.1846 5.58845 12.3462H1.75385C2.32693 13.5898 3.13943 14.6096 4.19135 15.4058C5.24327 16.2019 6.42179 16.6859 7.72692 16.8577ZM10.2731 16.8577C11.5782 16.6859 12.7567 16.2019 13.8087 15.4058C14.8606 14.6096 15.6731 13.5898 16.2462 12.3462H12.4115C12.159 13.1974 11.8401 14.0279 11.4548 14.8375C11.0696 15.6471 10.6756 16.3205 10.2731 16.8577ZM1.34615 11.3462H5.38077C5.30512 10.9359 5.2516 10.5362 5.2202 10.1471C5.18878 9.75801 5.17308 9.37563 5.17308 9C5.17308 8.62437 5.18878 8.24199 5.2202 7.85287C5.2516 7.46377 5.30512 7.0641 5.38077 6.65385H1.34615C1.23718 7 1.15225 7.37724 1.09135 7.78557C1.03045 8.19391 1 8.59872 1 9C1 9.40128 1.03045 9.80609 1.09135 10.2144C1.15225 10.6228 1.23718 11 1.34615 11.3462ZM6.38077 11.3462H11.6192C11.6949 10.9359 11.7484 10.5426 11.7798 10.1664C11.8112 9.79007 11.8269 9.40128 11.8269 9C11.8269 8.59872 11.8112 8.20993 11.7798 7.83365C11.7484 7.45737 11.6949 7.0641 11.6192 6.65385H6.38077C6.30512 7.0641 6.2516 7.45737 6.2202 7.83365C6.18878 8.20993 6.17308 8.59872 6.17308 9C6.17308 9.40128 6.18878 9.79007 6.2202 10.1664C6.2516 10.5426 6.30512 10.9359 6.38077 11.3462ZM12.6192 11.3462H16.6539C16.7628 11 16.8478 10.6228 16.9087 10.2144C16.9696 9.80609 17 9.40128 17 9C17 8.59872 16.9696 8.19391 16.9087 7.78557C16.8478 7.37724 16.7628 7 16.6539 6.65385H12.6192C12.6949 7.0641 12.7484 7.46377 12.7798 7.85287C12.8112 8.24199 12.8269 8.62437 12.8269 9C12.8269 9.37563 12.8112 9.75801 12.7798 10.1471C12.7484 10.5362 12.6949 10.9359 12.6192 11.3462ZM12.4115 5.65385H16.2462C15.6603 4.38462 14.8574 3.36474 13.8375 2.59422C12.8176 1.82372 11.6295 1.33334 10.2731 1.12307C10.7397 1.73717 11.1593 2.43942 11.5317 3.2298C11.9042 4.02018 12.1974 4.8282 12.4115 5.65385ZM6.61923 5.65385H11.3808C11.1167 4.71538 10.791 3.86667 10.4038 3.1077C10.0167 2.34872 9.54872 1.64358 9 0.9923C8.45128 1.64358 7.98333 2.34872 7.59615 3.1077C7.20897 3.86667 6.88333 4.71538 6.61923 5.65385ZM1.75385 5.65385H5.58845C5.80255 4.8282 6.09582 4.02018 6.46827 3.2298C6.84071 2.43942 7.26026 1.73717 7.72692 1.12307C6.35769 1.33334 5.16634 1.82693 4.15287 2.60385C3.13942 3.38077 2.33975 4.39743 1.75385 5.65385Z" fill="#083A74"/>
</svg>
