<svg width="15" height="28" viewBox="0 0 15 28" fill="none" xmlns="http://www.w3.org/2000/svg">
<path d="M13.0315 27.9999C12.878 28.0008 12.7258 27.9713 12.5836 27.9133C12.4415 27.8552 12.3122 27.7697 12.2032 27.6616L2.67152 18.1299C2.12829 17.588 1.69729 16.9443 1.40321 16.2356C1.10914 15.5269 0.957764 14.7672 0.957764 13.9999C0.957764 13.2326 1.10914 12.4729 1.40321 11.7642C1.69729 11.0555 2.12829 10.4118 2.67152 9.86989L12.2032 0.338224C12.312 0.229446 12.4411 0.143158 12.5832 0.0842878C12.7254 0.0254174 12.8777 -0.00488281 13.0315 -0.00488281C13.1854 -0.00488281 13.3377 0.0254174 13.4798 0.0842878C13.6219 0.143158 13.7511 0.229446 13.8599 0.338224C13.9686 0.447002 14.0549 0.576141 14.1138 0.718267C14.1727 0.860392 14.203 1.01272 14.203 1.16656C14.203 1.32039 14.1727 1.47272 14.1138 1.61485C14.0549 1.75697 13.9686 1.88611 13.8599 1.99489L4.32819 11.5266C3.67276 12.1828 3.3046 13.0724 3.3046 13.9999C3.3046 14.9274 3.67276 15.817 4.32819 16.4732L13.8599 26.0049C13.9692 26.1133 14.056 26.2424 14.1152 26.3846C14.1745 26.5267 14.205 26.6792 14.205 26.8332C14.205 26.9872 14.1745 27.1397 14.1152 27.2819C14.056 27.4241 13.9692 27.5531 13.8599 27.6616C13.7508 27.7697 13.6216 27.8552 13.4794 27.9133C13.3373 27.9713 13.1851 28.0008 13.0315 27.9999Z" fill="#F7FAFF"/>
</svg>
