<svg width="15" height="28" viewBox="0 0 15 28" fill="none" xmlns="http://www.w3.org/2000/svg">
<path d="M13.0316 27.9998C12.8781 28.0007 12.7259 27.9712 12.5838 27.9132C12.4416 27.8551 12.3123 27.7696 12.2033 27.6614L2.67165 18.1298C2.12841 17.5879 1.69741 16.9442 1.40333 16.2355C1.10926 15.5268 0.957886 14.7671 0.957886 13.9998C0.957886 13.2325 1.10926 12.4727 1.40333 11.764C1.69741 11.0553 2.12841 10.4116 2.67165 9.86977L12.2033 0.338102C12.3121 0.229324 12.4412 0.143036 12.5834 0.0841657C12.7255 0.0252953 12.8778 -0.00500488 13.0316 -0.00500488C13.1855 -0.00500488 13.3378 0.0252953 13.4799 0.0841657C13.6221 0.143036 13.7512 0.229324 13.86 0.338102C13.9688 0.44688 14.055 0.576019 14.1139 0.718145C14.1728 0.86027 14.2031 1.0126 14.2031 1.16644C14.2031 1.32027 14.1728 1.4726 14.1139 1.61473C14.055 1.75685 13.9688 1.88599 13.86 1.99477L4.32831 11.5264C3.67288 12.1827 3.30473 13.0723 3.30473 13.9998C3.30473 14.9273 3.67288 15.8168 4.32831 16.4731L13.86 26.0048C13.9693 26.1132 14.0561 26.2423 14.1154 26.3844C14.1746 26.5266 14.2051 26.6791 14.2051 26.8331C14.2051 26.9871 14.1746 27.1396 14.1154 27.2818C14.0561 27.4239 13.9693 27.553 13.86 27.6614C13.751 27.7696 13.6217 27.8551 13.4795 27.9132C13.3374 27.9712 13.1852 28.0007 13.0316 27.9998Z" fill="#4E4E4E"/>
</svg>
