<svg width="168" height="53" viewBox="0 0 168 53" fill="none" xmlns="http://www.w3.org/2000/svg">
<path fill-rule="evenodd" clip-rule="evenodd" d="M12 0C5.37258 0 0 5.37258 0 12V39H119.308V33.1747C118.69 32.4326 118.137 31.5982 117.651 30.6714C116.411 28.232 115.791 25.1128 115.791 21.3137C115.791 17.3547 116.431 14.1355 117.711 11.6561C118.182 10.7705 118.715 9.96914 119.308 9.25191V0H12Z" fill="#083A74"/>
<path d="M16.3848 26.2656L21.4649 8.40625H23.9259L22.502 15.3496L17.0352 34H14.5919L16.3848 26.2656ZM11.129 8.40625L15.172 25.9141L16.3848 34H13.9591L7.75398 8.40625H11.129ZM30.5001 25.8965L34.4552 8.40625H37.8477L31.6602 34H29.2345L30.5001 25.8965ZM24.295 8.40625L29.2345 26.2656L31.0274 34H28.5841L23.3106 15.3496L21.8692 8.40625H24.295ZM51.0306 10.6738L42.558 34H39.0951L48.8509 8.40625H51.0834L51.0306 10.6738ZM58.1322 34L49.642 10.6738L49.5892 8.40625H51.8216L61.6127 34H58.1322ZM57.6927 24.5254V27.3027H43.3138V24.5254H57.6927ZM65.7604 8.40625H74.233C76.1549 8.40625 77.778 8.69922 79.1022 9.28516C80.4381 9.87109 81.4518 10.7383 82.1432 11.8867C82.8463 13.0234 83.1979 14.4238 83.1979 16.0879C83.1979 17.2598 82.9577 18.332 82.4772 19.3047C82.0084 20.2656 81.3287 21.0859 80.4381 21.7656C79.5592 22.4336 78.5045 22.9316 77.2741 23.2598L76.3248 23.6289H68.3619L68.3268 20.8691H74.3385C75.5573 20.8691 76.5709 20.6582 77.3795 20.2363C78.1881 19.8027 78.7975 19.2227 79.2077 18.4961C79.6178 17.7695 79.8229 16.9668 79.8229 16.0879C79.8229 15.1035 79.6295 14.2422 79.2428 13.5039C78.8561 12.7656 78.2467 12.1973 77.4147 11.7988C76.5944 11.3887 75.5338 11.1836 74.233 11.1836H69.153V34H65.7604V8.40625ZM80.7194 34L74.4967 22.3984L78.0299 22.3809L84.3405 33.7891V34H80.7194ZM95.5898 34H90.246L90.2812 31.2402H95.5898C97.4179 31.2402 98.9413 30.8594 100.16 30.0977C101.379 29.3242 102.293 28.2461 102.902 26.8633C103.523 25.4688 103.834 23.8398 103.834 21.9766V20.4121C103.834 18.9473 103.658 17.6465 103.307 16.5098C102.955 15.3613 102.439 14.3945 101.76 13.6094C101.08 12.8125 100.248 12.209 99.2636 11.7988C98.2909 11.3887 97.1718 11.1836 95.9062 11.1836H90.1405V8.40625H95.9062C97.582 8.40625 99.1113 8.6875 100.494 9.25C101.877 9.80078 103.066 10.6035 104.062 11.6582C105.07 12.7012 105.844 13.9668 106.383 15.4551C106.922 16.9316 107.191 18.5957 107.191 20.4473V21.9766C107.191 23.8281 106.922 25.498 106.383 26.9863C105.844 28.4629 105.064 29.7227 104.045 30.7656C103.037 31.8086 101.818 32.6113 100.389 33.1738C98.9706 33.7246 97.371 34 95.5898 34ZM92.0566 8.40625V34H88.664V8.40625H92.0566Z" fill="white"/>
<path d="M6.56085 46.1379V47.0576H1.94482V46.1379H6.56085ZM2.12056 42.4709V51H0.989986V42.4709H2.12056ZM7.54498 42.4709V51H6.42026V42.4709H7.54498ZM13.297 43.2266L10.4735 51H9.31946L12.5706 42.4709H13.3145L13.297 43.2266ZM15.6636 51L12.8342 43.2266L12.8166 42.4709H13.5606L16.8234 51H15.6636ZM15.5171 47.8426V48.7681H10.7254V47.8426H15.5171ZM24.9416 47.0108H22.78L22.7683 46.1028H24.7307C25.0548 46.1028 25.3379 46.0481 25.5801 45.9388C25.8222 45.8294 26.0096 45.6732 26.1424 45.4701C26.2791 45.2632 26.3474 45.0171 26.3474 44.732C26.3474 44.4196 26.2869 44.1658 26.1659 43.9705C26.0487 43.7713 25.8671 43.6269 25.6211 43.537C25.3789 43.4433 25.0704 43.3964 24.6955 43.3964H23.0319V51H21.9013V42.4709H24.6955C25.1329 42.4709 25.5234 42.5158 25.8671 42.6056C26.2108 42.6915 26.5017 42.8282 26.7399 43.0157C26.9821 43.1992 27.1656 43.4335 27.2906 43.7186C27.4155 44.0037 27.478 44.3454 27.478 44.7438C27.478 45.0952 27.3882 45.4135 27.2086 45.6986C27.0289 45.9798 26.779 46.2102 26.4587 46.3898C26.1424 46.5695 25.7714 46.6847 25.3457 46.7354L24.9416 47.0108ZM24.8888 51H22.3348L22.9733 50.0803H24.8888C25.2481 50.0803 25.5527 50.0178 25.8027 49.8929C26.0565 49.7679 26.2498 49.5922 26.3826 49.3656C26.5154 49.1352 26.5818 48.8638 26.5818 48.5514C26.5818 48.2351 26.5251 47.9617 26.4119 47.7313C26.2986 47.5009 26.1209 47.3232 25.8788 47.1982C25.6367 47.0733 25.3243 47.0108 24.9416 47.0108H23.3306L23.3423 46.1028H25.5449L25.7851 46.4308C26.1951 46.466 26.5427 46.5831 26.8278 46.7823C27.1129 46.9776 27.3296 47.2275 27.478 47.5321C27.6303 47.8367 27.7065 48.1726 27.7065 48.5397C27.7065 49.0708 27.5893 49.5199 27.355 49.887C27.1246 50.2502 26.7985 50.5275 26.3767 50.7188C25.955 50.9063 25.459 51 24.8888 51ZM33.0133 43.2266L30.1898 51H29.0358L32.2869 42.4709H33.0308L33.0133 43.2266ZM35.3799 51L32.5505 43.2266L32.5329 42.4709H33.2769L36.5397 51H35.3799ZM35.2334 47.8426V48.7681H30.4417V47.8426H35.2334ZM41.3076 47.6551H39.0289V46.7354H41.3076C41.7489 46.7354 42.1062 46.6652 42.3796 46.5246C42.653 46.384 42.8521 46.1887 42.9771 45.9388C43.106 45.6888 43.1704 45.4037 43.1704 45.0835C43.1704 44.7906 43.106 44.5153 42.9771 44.2576C42.8521 43.9998 42.653 43.7928 42.3796 43.6366C42.1062 43.4765 41.7489 43.3964 41.3076 43.3964H39.2925V51H38.1619V42.4709H41.3076C41.952 42.4709 42.4968 42.5822 42.942 42.8048C43.3872 43.0274 43.725 43.3359 43.9554 43.7303C44.1858 44.1209 44.301 44.568 44.301 45.0718C44.301 45.6185 44.1858 46.0852 43.9554 46.4718C43.725 46.8585 43.3872 47.1533 42.942 47.3564C42.4968 47.5556 41.952 47.6551 41.3076 47.6551ZM49.3617 42.4709V51H48.2487V42.4709H49.3617ZM52.1032 42.4709V43.3964H45.5131V42.4709H52.1032ZM55.061 42.4709V51H53.9304V42.4709H55.061ZM64.093 47.0108H61.9314L61.9197 46.1028H63.8821C64.2062 46.1028 64.4894 46.0481 64.7315 45.9388C64.9736 45.8294 65.1611 45.6732 65.2938 45.4701C65.4305 45.2632 65.4989 45.0171 65.4989 44.732C65.4989 44.4196 65.4383 44.1658 65.3173 43.9705C65.2001 43.7713 65.0185 43.6269 64.7725 43.537C64.5304 43.4433 64.2218 43.3964 63.8469 43.3964H62.1833V51H61.0527V42.4709H63.8469C64.2843 42.4709 64.6749 42.5158 65.0185 42.6056C65.3622 42.6915 65.6531 42.8282 65.8913 43.0157C66.1335 43.1992 66.317 43.4335 66.442 43.7186C66.567 44.0037 66.6294 44.3454 66.6294 44.7438C66.6294 45.0952 66.5396 45.4135 66.36 45.6986C66.1803 45.9798 65.9304 46.2102 65.6102 46.3898C65.2938 46.5695 64.9228 46.6847 64.4972 46.7354L64.093 47.0108ZM64.0402 51H61.4862L62.1247 50.0803H64.0402C64.3995 50.0803 64.7041 50.0178 64.9541 49.8929C65.2079 49.7679 65.4012 49.5922 65.534 49.3656C65.6668 49.1352 65.7332 48.8638 65.7332 48.5514C65.7332 48.2351 65.6766 47.9617 65.5633 47.7313C65.4501 47.5009 65.2724 47.3232 65.0302 47.1982C64.7881 47.0733 64.4757 47.0108 64.093 47.0108H62.482L62.4938 46.1028H64.6963L64.9365 46.4308C65.3466 46.466 65.6941 46.5831 65.9792 46.7823C66.2643 46.9776 66.481 47.2275 66.6294 47.5321C66.7817 47.8367 66.8579 48.1726 66.8579 48.5397C66.8579 49.0708 66.7407 49.5199 66.5064 49.887C66.276 50.2502 65.9499 50.5275 65.5282 50.7188C65.1064 50.9063 64.6104 51 64.0402 51ZM72.1647 43.2266L69.3412 51H68.1872L71.4383 42.4709H72.1823L72.1647 43.2266ZM74.5313 51L71.7019 43.2266L71.6844 42.4709H72.4283L75.6912 51H74.5313ZM74.3848 47.8426V48.7681H69.5931V47.8426H74.3848ZM77.3543 42.4709H78.4908V50.0803H81.4197V42.4709H82.5444V50.0803H85.4558V42.4709H86.5864V51H77.3543V42.4709ZM95.654 46.466V47.0049C95.654 47.6454 95.5739 48.2194 95.4138 48.7271C95.2537 49.2348 95.0233 49.6664 94.7225 50.0217C94.4218 50.3771 94.0606 50.6485 93.6388 50.836C93.221 51.0234 92.7523 51.1172 92.2329 51.1172C91.7292 51.1172 91.2664 51.0234 90.8446 50.836C90.4268 50.6485 90.0636 50.3771 89.755 50.0217C89.4504 49.6664 89.2142 49.2348 89.0462 48.7271C88.8783 48.2194 88.7944 47.6454 88.7944 47.0049V46.466C88.7944 45.8255 88.8764 45.2534 89.0404 44.7496C89.2083 44.2419 89.4446 43.8104 89.7492 43.455C90.0538 43.0957 90.415 42.8224 90.8329 42.6349C91.2547 42.4475 91.7174 42.3537 92.2212 42.3537C92.7406 42.3537 93.2093 42.4475 93.6271 42.6349C94.0489 42.8224 94.4101 43.0957 94.7108 43.455C95.0154 43.8104 95.2478 44.2419 95.4079 44.7496C95.5719 45.2534 95.654 45.8255 95.654 46.466ZM94.5351 47.0049V46.4543C94.5351 45.9466 94.4824 45.4975 94.3769 45.1069C94.2754 44.7164 94.125 44.3884 93.9259 44.1228C93.7267 43.8573 93.4826 43.6561 93.1936 43.5195C92.9086 43.3828 92.5844 43.3144 92.2212 43.3144C91.8697 43.3144 91.5515 43.3828 91.2664 43.5195C90.9852 43.6561 90.7431 43.8573 90.54 44.1228C90.3408 44.3884 90.1866 44.7164 90.0772 45.1069C89.9679 45.4975 89.9132 45.9466 89.9132 46.4543V47.0049C89.9132 47.5165 89.9679 47.9695 90.0772 48.3639C90.1866 48.7545 90.3428 49.0845 90.5459 49.3539C90.7528 49.6195 90.9969 49.8206 91.2781 49.9573C91.5632 50.094 91.8815 50.1623 92.2329 50.1623C92.6 50.1623 92.9261 50.094 93.2112 49.9573C93.4963 49.8206 93.7365 49.6195 93.9317 49.3539C94.1309 49.0845 94.2813 48.7545 94.3828 48.3639C94.4843 47.9695 94.5351 47.5165 94.5351 47.0049ZM99.0394 42.4709V51H97.9088V42.4709H99.0394ZM96.5849 41.0826C96.5849 40.9068 96.6396 40.7584 96.7489 40.6374C96.8583 40.5163 97.0164 40.4558 97.2234 40.4558C97.4343 40.4558 97.5944 40.5163 97.7038 40.6374C97.8131 40.7584 97.8678 40.9068 97.8678 41.0826C97.8678 41.2505 97.8131 41.395 97.7038 41.5161C97.5944 41.6332 97.4343 41.6918 97.2234 41.6918C97.0164 41.6918 96.8583 41.6332 96.7489 41.5161C96.6396 41.395 96.5849 41.2505 96.5849 41.0826ZM99.1097 41.0943C99.1097 40.9185 99.1624 40.7701 99.2678 40.6491C99.3772 40.528 99.5373 40.4675 99.7482 40.4675C99.9551 40.4675 100.113 40.528 100.223 40.6491C100.336 40.7701 100.393 40.9185 100.393 41.0943C100.393 41.2622 100.336 41.4067 100.223 41.5278C100.113 41.6449 99.9551 41.7035 99.7482 41.7035C99.5373 41.7035 99.3772 41.6449 99.2678 41.5278C99.1624 41.4067 99.1097 41.2622 99.1097 41.0943ZM110.233 42.4709V43.3964H106.121V51H104.996V42.4709H110.233ZM105.857 45.9446H108.183C108.807 45.9446 109.335 46.0501 109.764 46.261C110.194 46.4679 110.52 46.7589 110.743 47.1338C110.965 47.5087 111.076 47.948 111.076 48.4518C111.076 48.8267 111.014 49.1704 110.889 49.4828C110.764 49.7913 110.578 50.0608 110.332 50.2912C110.086 50.5177 109.784 50.6934 109.424 50.8184C109.065 50.9395 108.651 51 108.183 51H104.996V42.4709H106.126V50.0803H108.183C108.6 50.0803 108.938 50.0042 109.196 49.8519C109.458 49.6956 109.649 49.4926 109.77 49.2426C109.891 48.9927 109.952 48.7252 109.952 48.4401C109.952 48.155 109.891 47.8934 109.77 47.6551C109.649 47.4169 109.458 47.2275 109.196 47.0869C108.938 46.9424 108.6 46.8702 108.183 46.8702H105.857V45.9446ZM118.498 50.0803V51H113.981V50.0803H118.498ZM114.21 42.4709V51H113.079V42.4709H114.21ZM117.9 46.1379V47.0576H113.981V46.1379H117.9ZM118.439 42.4709V43.3964H113.981V42.4709H118.439ZM122.99 46.9053H121.977V46.1848H122.949C123.379 46.1848 123.727 46.1243 123.992 46.0032C124.258 45.8821 124.451 45.7142 124.572 45.4994C124.693 45.2846 124.754 45.0367 124.754 44.7555C124.754 44.486 124.687 44.24 124.555 44.0174C124.422 43.7909 124.217 43.6112 123.939 43.4785C123.662 43.3418 123.305 43.2734 122.867 43.2734C122.539 43.2734 122.243 43.3359 121.977 43.4609C121.711 43.5819 121.501 43.7518 121.344 43.9705C121.188 44.1853 121.11 44.4333 121.11 44.7145H119.979C119.979 44.3513 120.056 44.0252 120.208 43.7362C120.36 43.4433 120.569 43.1953 120.835 42.9922C121.1 42.7853 121.407 42.6271 121.754 42.5178C122.106 42.4084 122.477 42.3537 122.867 42.3537C123.324 42.3537 123.738 42.4065 124.109 42.5119C124.48 42.6134 124.799 42.7657 125.064 42.9688C125.33 43.1719 125.533 43.4238 125.673 43.7245C125.814 44.0252 125.884 44.3747 125.884 44.773C125.884 45.0659 125.816 45.3413 125.679 45.599C125.543 45.8568 125.347 46.0833 125.093 46.2785C124.84 46.4738 124.535 46.6281 124.18 46.7413C123.824 46.8507 123.428 46.9053 122.99 46.9053ZM121.977 46.4074H122.99C123.471 46.4074 123.898 46.4562 124.273 46.5539C124.648 46.6515 124.965 46.794 125.222 46.9815C125.48 47.1689 125.675 47.4013 125.808 47.6786C125.945 47.9519 126.013 48.2663 126.013 48.6217C126.013 49.02 125.935 49.3735 125.779 49.682C125.627 49.9905 125.41 50.2521 125.129 50.4669C124.847 50.6817 124.514 50.8438 124.127 50.9531C123.744 51.0625 123.324 51.1172 122.867 51.1172C122.5 51.1172 122.137 51.0703 121.778 50.9766C121.422 50.8789 121.1 50.7305 120.811 50.5314C120.522 50.3283 120.29 50.0705 120.114 49.7581C119.942 49.4457 119.856 49.0708 119.856 48.6334H120.987C120.987 48.9185 121.065 49.1801 121.221 49.4184C121.381 49.6566 121.602 49.8479 121.883 49.9924C122.164 50.133 122.493 50.2033 122.867 50.2033C123.297 50.2033 123.66 50.1369 123.957 50.0042C124.258 49.8675 124.486 49.682 124.642 49.4477C124.802 49.2094 124.883 48.9419 124.883 48.6451C124.883 48.3835 124.84 48.157 124.754 47.9656C124.672 47.7703 124.549 47.6102 124.385 47.4853C124.225 47.3603 124.023 47.2685 123.781 47.2099C123.543 47.1475 123.266 47.1162 122.949 47.1162H121.977V46.4074ZM134.495 42.4709V51H133.37V43.3964H129.164V51H128.034V42.4709H134.495ZM142.444 50.0803V51H137.927V50.0803H142.444ZM138.156 42.4709V51H137.025V42.4709H138.156ZM141.846 46.1379V47.0576H137.927V46.1379H141.846ZM142.385 42.4709V43.3964H137.927V42.4709H142.385ZM145.507 42.4709V51H144.376V42.4709H145.507ZM150.761 42.4709L147.059 47.1631H145.056L144.88 46.2258H146.386L149.361 42.4709H150.761ZM149.625 51L146.421 47.0166L147.053 46.0266L151.007 51H149.625ZM153.69 49.0435L157.89 42.4709H159.021V51H157.89V44.4216L153.69 51H152.565V42.4709H153.69V49.0435Z" fill="#222222"/>
<path d="M135.718 8.09753C141.188 7.73278 145.536 11.2587 153.662 17.3507C152.569 13.8609 151.776 11.4015 149.608 9.2423C146.305 5.38374 141.398 2.69213 135.193 3.02832C130.081 3.27566 125.898 5.54859 122.767 9.12857C120.151 12.0575 119.019 15.4524 118.638 17.7973C126.627 11.2061 130.788 8.18801 135.718 8.09753Z" fill="#083A74"/>
<path d="M135.718 8.09753C141.188 7.73278 145.536 11.2587 153.662 17.3507C152.569 13.8609 151.776 11.4015 149.608 9.2423C146.305 5.38374 141.398 2.69213 135.193 3.02832C130.081 3.27566 125.898 5.54859 122.767 9.12857C120.151 12.0575 119.019 15.4524 118.638 17.7973C126.627 11.2061 130.788 8.18801 135.718 8.09753Z" fill="url(#paint0_linear_122_174)"/>
<path d="M151.41 17.532C143.787 11.7121 140.052 9.3269 136.094 9.4994C134.001 9.46961 131.865 10.1305 128.323 12.3518C124.191 15.3336 120.539 18.0675 118 19.8812C123.412 22.8137 126.442 23.5924 131.852 24.0869L130.05 22.1546C128.063 19.0868 127.874 17.1861 130.35 13.2505C131.628 11.5767 133.251 10.5877 135.493 10.1946C136.632 9.99874 137.765 10.204 139.135 10.7498C142.202 12.4983 143.699 14.1633 144.015 18.1761C143.851 20.7607 143.118 21.9399 141.011 23.708C145.656 23.9605 148.374 23.0386 154 19.8514C153.671 19.3023 153.161 18.7741 151.41 17.532Z" fill="#01162D"/>
<path d="M121.153 28.4524C119.156 27.3459 118.674 25.5462 118.375 22.2763C122.975 24.0497 125.588 24.9482 131.439 25.6404C135.18 26.0605 137.2 26.0255 140.711 25.6404C147.852 24.5818 150.027 23.7708 154 21.9732C153.872 23.6412 153.849 24.4748 153.287 26.179C152.072 28.7251 150.027 29.9894 144.878 31.627C140.365 32.7827 137.667 33.0609 132.453 32.65C127.581 32.0059 125.105 31.0279 121.153 28.4524Z" fill="#083A74"/>
<path d="M121.153 28.4524C119.156 27.3459 118.674 25.5462 118.375 22.2763C122.975 24.0497 125.588 24.9482 131.439 25.6404C135.18 26.0605 137.2 26.0255 140.711 25.6404C147.852 24.5818 150.027 23.7708 154 21.9732C153.872 23.6412 153.849 24.4748 153.287 26.179C152.072 28.7251 150.027 29.9894 144.878 31.627C140.365 32.7827 137.667 33.0609 132.453 32.65C127.581 32.0059 125.105 31.0279 121.153 28.4524Z" fill="url(#paint1_linear_122_174)"/>
<path d="M125.696 35.5377C122.644 33.2615 121.865 31.7671 120.515 29.589C124.035 32.0402 126.679 32.8913 131.139 33.6731C134.592 34.2828 136.556 34.1964 140.073 33.8246C144.856 33.1143 147.361 32.1234 151.673 29.8462C149.656 32.7854 148.468 34.7872 144.428 36.9397C142.069 38.0633 140.112 39.137 136.169 38.9857C131.709 38.857 128.79 37.6776 125.696 35.5377Z" fill="#083A74"/>
<path d="M142.513 17.9488C142.513 21.4016 139.74 24.2006 136.319 24.2006C132.898 24.2006 130.125 21.4016 130.125 17.9488C130.125 14.496 132.898 11.697 136.319 11.697C139.74 11.697 142.513 14.496 142.513 17.9488Z" fill="#38B92C"/>
<path d="M142.513 17.9488C142.513 21.4016 139.74 24.2006 136.319 24.2006C132.898 24.2006 130.125 21.4016 130.125 17.9488C130.125 14.496 132.898 11.697 136.319 11.697C139.74 11.697 142.513 14.496 142.513 17.9488Z" fill="url(#paint2_linear_122_174)"/>
<path d="M139.96 17.2668C139.96 19.0874 138.498 20.5632 136.694 20.5632C134.891 20.5632 133.429 19.0874 133.429 17.2668C133.429 15.4462 134.891 13.9704 136.694 13.9704C138.498 13.9704 139.96 15.4462 139.96 17.2668Z" fill="black"/>
<path d="M133.797 17.809C133.151 17.5275 132.877 17.2375 132.517 16.6322C132.492 16.0474 132.463 15.4502 132.679 14.8975C132.933 14.2497 133.274 13.7516 133.94 13.4719C134.703 13.1517 135.359 13.2925 136.086 13.5994L136.934 14.7122C136.885 15.6254 136.806 16.5567 136.086 17.2068C135.485 17.7495 134.815 17.8853 134.031 17.9107L133.797 17.809Z" fill="#FEFDFD"/>
<defs>
<linearGradient id="paint0_linear_122_174" x1="140.92" y1="53.3998" x2="99.8277" y2="33.8114" gradientUnits="userSpaceOnUse">
<stop stop-color="#0C57AD"/>
<stop offset="1" stop-color="white" stop-opacity="0"/>
</linearGradient>
<linearGradient id="paint1_linear_122_174" x1="137.992" y1="29.6377" x2="83.7605" y2="-7.16268" gradientUnits="userSpaceOnUse">
<stop stop-color="#0C57AD"/>
<stop offset="1" stop-color="white" stop-opacity="0"/>
</linearGradient>
<linearGradient id="paint2_linear_122_174" x1="144.509" y1="25.2778" x2="116.145" y2="5.85964" gradientUnits="userSpaceOnUse">
<stop offset="0.234375" stop-color="#38B92C"/>
<stop offset="0.84375" stop-color="white" stop-opacity="0"/>
</linearGradient>
</defs>
</svg>
