<svg width="306" height="96" viewBox="0 0 306 96" fill="none" xmlns="http://www.w3.org/2000/svg">
<path fill-rule="evenodd" clip-rule="evenodd" d="M21.8571 0C9.78578 0 0 9.78577 0 21.8571V71.0357H217.312V60.5326C216.184 59.181 215.178 57.6611 214.292 55.973C212.034 51.5298 210.905 45.8484 210.905 38.9287C210.905 31.7176 212.071 25.8541 214.402 21.3381C215.26 19.7251 216.23 18.2654 217.312 16.959V0H21.8571Z" fill="#083A74"/>
<path d="M29.8438 48.7337L39.0968 16.2041H43.5792L40.9858 28.8509L31.0285 62.8213H26.5781L29.8438 48.7337ZM20.2706 16.2041L27.6346 48.0933L29.8438 62.8213H25.4254L14.1233 16.2041H20.2706ZM55.5537 48.0613L62.7576 16.2041H68.9369L57.6669 62.8213H53.2485L55.5537 48.0613ZM44.2516 16.2041L53.2485 48.7337L56.5142 62.8213H52.0638L42.4586 28.8509L39.8332 16.2041H44.2516ZM92.9486 20.3343L77.5163 62.8213H71.2089L88.9785 16.2041H93.0447L92.9486 20.3343ZM105.884 62.8213L90.4193 20.3343L90.3232 16.2041H94.3894L112.223 62.8213H105.884ZM105.083 45.564V50.6227H78.893V45.564H105.083ZM119.778 16.2041H135.21C138.711 16.2041 141.667 16.7377 144.079 17.805C146.512 18.8722 148.359 20.4517 149.618 22.5435C150.899 24.614 151.539 27.1647 151.539 30.1957C151.539 32.3301 151.101 34.2832 150.226 36.0548C149.373 37.8051 148.135 39.2992 146.512 40.5372C144.911 41.7539 142.99 42.6611 140.749 43.2587L139.02 43.9311H124.516L124.452 38.9044H135.402C137.622 38.9044 139.469 38.5202 140.941 37.7517C142.414 36.962 143.524 35.9054 144.271 34.582C145.018 33.2586 145.392 31.7965 145.392 30.1957C145.392 28.4027 145.04 26.8338 144.335 25.4891C143.631 24.1444 142.521 23.1092 141.005 22.3834C139.511 21.6364 137.579 21.2628 135.21 21.2628H125.957V62.8213H119.778V16.2041ZM147.025 62.8213L135.69 41.6899L142.126 41.6579L153.62 62.4371V62.8213H147.025ZM174.11 62.8213H164.377L164.441 57.7946H174.11C177.44 57.7946 180.215 57.1009 182.434 55.7134C184.654 54.3047 186.319 52.341 187.429 49.8223C188.56 47.2822 189.126 44.3153 189.126 40.9215V38.0719C189.126 35.4038 188.806 33.0345 188.166 30.9641C187.525 28.8723 186.586 27.1113 185.348 25.6812C184.11 24.2298 182.595 23.1305 180.802 22.3834C179.03 21.6364 176.991 21.2628 174.686 21.2628H164.185V16.2041H174.686C177.739 16.2041 180.524 16.7164 183.043 17.7409C185.561 18.7441 187.728 20.2063 189.542 22.1273C191.378 24.027 192.787 26.3322 193.769 29.043C194.75 31.7325 195.241 34.7635 195.241 38.1359V40.9215C195.241 44.2939 194.75 47.3356 193.769 50.0464C192.787 52.7358 191.367 55.0304 189.51 56.9301C187.675 58.8298 185.455 60.2919 182.851 61.3165C180.268 62.3197 177.354 62.8213 174.11 62.8213ZM167.674 16.2041V62.8213H161.495V16.2041H167.674Z" fill="white"/>
<path d="M11.9501 83.5967V85.2719H3.54236V83.5967H11.9501ZM3.86245 76.9175V92.4526H1.80319V76.9175H3.86245ZM13.7426 76.9175V92.4526H11.6941V76.9175H13.7426ZM24.2195 78.2939L19.0767 92.4526H16.9747L22.8964 76.9175H24.2515L24.2195 78.2939ZM28.5301 92.4526L23.3766 78.2939L23.3446 76.9175H24.6996L30.6427 92.4526H28.5301ZM28.2633 86.7016V88.3875H19.5355V86.7016H28.2633ZM45.4293 85.1865H41.4921L41.4708 83.5327H45.0451C45.6355 83.5327 46.1512 83.4331 46.5923 83.234C47.0333 83.0348 47.3747 82.7503 47.6166 82.3804C47.8655 82.0034 47.99 81.5553 47.99 81.036C47.99 80.4669 47.8797 80.0046 47.6592 79.6489C47.4458 79.2862 47.1151 79.023 46.6669 78.8594C46.2259 78.6887 45.664 78.6033 44.9811 78.6033H41.9509V92.4526H39.8917V76.9175H44.9811C45.7778 76.9175 46.4891 76.9993 47.1151 77.1629C47.741 77.3194 48.271 77.5683 48.7049 77.9098C49.1459 78.2441 49.4802 78.6709 49.7078 79.1901C49.9354 79.7094 50.0493 80.3318 50.0493 81.0573C50.0493 81.6975 49.8857 82.2772 49.5584 82.7965C49.2312 83.3087 48.776 83.7283 48.1927 84.0555C47.6166 84.3827 46.9408 84.5926 46.1655 84.6851L45.4293 85.1865ZM45.3332 92.4526H40.6812L41.8442 90.7775H45.3332C45.9876 90.7775 46.5425 90.6637 46.9977 90.4361C47.4601 90.2084 47.8122 89.8883 48.054 89.4758C48.2959 89.0561 48.4168 88.5617 48.4168 87.9927C48.4168 87.4165 48.3136 86.9186 48.1074 86.4989C47.9011 86.0792 47.5774 85.7556 47.1364 85.528C46.6954 85.3003 46.1263 85.1865 45.4293 85.1865H42.4951L42.5164 83.5327H46.5282L46.9657 84.1302C47.7126 84.1942 48.3457 84.4076 48.8649 84.7704C49.3842 85.1261 49.779 85.5813 50.0493 86.1361C50.3267 86.691 50.4654 87.3027 50.4654 87.9713C50.4654 88.9387 50.252 89.7567 49.8252 90.4254C49.4055 91.0869 48.8116 91.5919 48.0433 91.9405C47.2751 92.2819 46.3717 92.4526 45.3332 92.4526ZM60.1313 78.2939L54.9885 92.4526H52.8866L58.8083 76.9175H60.1633L60.1313 78.2939ZM64.4419 92.4526L59.2884 78.2939L59.2564 76.9175H60.6115L66.5545 92.4526H64.4419ZM64.1752 86.7016V88.3875H55.4473V86.7016H64.1752ZM75.2388 86.3602H71.0883V84.6851H75.2388C76.0426 84.6851 76.6935 84.557 77.1914 84.3009C77.6893 84.0449 78.0521 83.6892 78.2797 83.234C78.5145 82.7787 78.6318 82.2595 78.6318 81.6762C78.6318 81.1427 78.5145 80.6412 78.2797 80.1717C78.0521 79.7023 77.6893 79.3253 77.1914 79.0408C76.6935 78.7491 76.0426 78.6033 75.2388 78.6033H71.5684V92.4526H69.5092V76.9175H75.2388C76.4125 76.9175 77.4048 77.1202 78.2157 77.5256C79.0266 77.9311 79.6419 78.493 80.0616 79.2115C80.4812 79.9228 80.6911 80.7372 80.6911 81.6548C80.6911 82.6507 80.4812 83.5007 80.0616 84.2049C79.6419 84.9091 79.0266 85.4462 78.2157 85.816C77.4048 86.1788 76.4125 86.3602 75.2388 86.3602ZM89.9089 76.9175V92.4526H87.8817V76.9175H89.9089ZM94.9023 76.9175V78.6033H82.8989V76.9175H94.9023ZM100.29 76.9175V92.4526H98.2305V76.9175H100.29ZM116.741 85.1865H112.804L112.782 83.5327H116.357C116.947 83.5327 117.463 83.4331 117.904 83.234C118.345 83.0348 118.686 82.7503 118.928 82.3804C119.177 82.0034 119.302 81.5553 119.302 81.036C119.302 80.4669 119.191 80.0046 118.971 79.6489C118.757 79.2862 118.427 79.023 117.978 78.8594C117.537 78.6887 116.976 78.6033 116.293 78.6033H113.262V92.4526H111.203V76.9175H116.293C117.089 76.9175 117.801 76.9993 118.427 77.1629C119.053 77.3194 119.582 77.5683 120.016 77.9098C120.457 78.2441 120.792 78.6709 121.019 79.1901C121.247 79.7094 121.361 80.3318 121.361 81.0573C121.361 81.6975 121.197 82.2772 120.87 82.7965C120.543 83.3087 120.088 83.7283 119.504 84.0555C118.928 84.3827 118.252 84.5926 117.477 84.6851L116.741 85.1865ZM116.645 92.4526H111.993L113.156 90.7775H116.645C117.299 90.7775 117.854 90.6637 118.309 90.4361C118.772 90.2084 119.124 89.8883 119.366 89.4758C119.607 89.0561 119.728 88.5617 119.728 87.9927C119.728 87.4165 119.625 86.9186 119.419 86.4989C119.213 86.0792 118.889 85.7556 118.448 85.528C118.007 85.3003 117.438 85.1865 116.741 85.1865H113.807L113.828 83.5327H117.84L118.277 84.1302C119.024 84.1942 119.657 84.4076 120.176 84.7704C120.696 85.1261 121.09 85.5813 121.361 86.1361C121.638 86.691 121.777 87.3027 121.777 87.9713C121.777 88.9387 121.564 89.7567 121.137 90.4254C120.717 91.0869 120.123 91.5919 119.355 91.9405C118.587 92.2819 117.683 92.4526 116.645 92.4526ZM131.443 78.2939L126.3 92.4526H124.198L130.12 76.9175H131.475L131.443 78.2939ZM135.753 92.4526L130.6 78.2939L130.568 76.9175H131.923L137.866 92.4526H135.753ZM135.487 86.7016V88.3875H126.759V86.7016H135.487ZM140.895 76.9175H142.965V90.7775H148.3V76.9175H150.349V90.7775H155.652V76.9175H157.711V92.4526H140.895V76.9175ZM174.227 84.1942V85.1759C174.227 86.3424 174.081 87.3881 173.789 88.3128C173.498 89.2375 173.078 90.0235 172.53 90.6708C171.983 91.3181 171.325 91.8125 170.556 92.1539C169.795 92.4953 168.942 92.666 167.996 92.666C167.078 92.666 166.235 92.4953 165.467 92.1539C164.706 91.8125 164.044 91.3181 163.482 90.6708C162.928 90.0235 162.497 89.2375 162.191 88.3128C161.886 87.3881 161.733 86.3424 161.733 85.1759V84.1942C161.733 83.0277 161.882 81.9856 162.181 81.068C162.487 80.1433 162.917 79.3573 163.472 78.71C164.027 78.0556 164.685 77.5577 165.446 77.2162C166.214 76.8748 167.057 76.7041 167.974 76.7041C168.92 76.7041 169.774 76.8748 170.535 77.2162C171.303 77.5577 171.961 78.0556 172.509 78.71C173.064 79.3573 173.487 80.1433 173.779 81.068C174.077 81.9856 174.227 83.0277 174.227 84.1942ZM172.189 85.1759V84.1729C172.189 83.2482 172.093 82.4302 171.901 81.7189C171.716 81.0075 171.442 80.41 171.079 79.9263C170.717 79.4426 170.272 79.0763 169.746 78.8274C169.226 78.5784 168.636 78.4539 167.974 78.4539C167.334 78.4539 166.754 78.5784 166.235 78.8274C165.723 79.0763 165.282 79.4426 164.912 79.9263C164.549 80.41 164.268 81.0075 164.069 81.7189C163.87 82.4302 163.77 83.2482 163.77 84.1729V85.1759C163.77 86.1077 163.87 86.9328 164.069 87.6512C164.268 88.3626 164.553 88.9636 164.923 89.4544C165.3 89.9381 165.744 90.3045 166.257 90.5534C166.776 90.8024 167.356 90.9269 167.996 90.9269C168.664 90.9269 169.258 90.8024 169.778 90.5534C170.297 90.3045 170.734 89.9381 171.09 89.4544C171.453 88.9636 171.727 88.3626 171.912 87.6512C172.096 86.9328 172.189 86.1077 172.189 85.1759ZM180.393 76.9175V92.4526H178.334V76.9175H180.393ZM175.922 74.3887C175.922 74.0686 176.022 73.7983 176.221 73.5778C176.42 73.3573 176.708 73.2471 177.085 73.2471C177.47 73.2471 177.761 73.3573 177.96 73.5778C178.16 73.7983 178.259 74.0686 178.259 74.3887C178.259 74.6946 178.16 74.9578 177.96 75.1783C177.761 75.3917 177.47 75.4984 177.085 75.4984C176.708 75.4984 176.42 75.3917 176.221 75.1783C176.022 74.9578 175.922 74.6946 175.922 74.3887ZM180.521 74.4101C180.521 74.09 180.617 73.8197 180.809 73.5992C181.008 73.3787 181.3 73.2684 181.684 73.2684C182.061 73.2684 182.349 73.3787 182.548 73.5992C182.755 73.8197 182.858 74.09 182.858 74.4101C182.858 74.7159 182.755 74.9791 182.548 75.1996C182.349 75.413 182.061 75.5197 181.684 75.5197C181.3 75.5197 181.008 75.413 180.809 75.1996C180.617 74.9791 180.521 74.7159 180.521 74.4101ZM200.781 76.9175V78.6033H193.291V92.4526H191.243V76.9175H200.781ZM192.811 83.2446H197.047C198.185 83.2446 199.145 83.4367 199.928 83.8208C200.71 84.1978 201.304 84.7277 201.71 85.4106C202.115 86.0935 202.318 86.8937 202.318 87.8113C202.318 88.4942 202.204 89.1201 201.976 89.6892C201.749 90.2511 201.411 90.7419 200.963 91.1616C200.515 91.5742 199.963 91.8943 199.309 92.1219C198.654 92.3424 197.9 92.4526 197.047 92.4526H191.243V76.9175H193.302V90.7775H197.047C197.808 90.7775 198.423 90.6388 198.893 90.3614C199.369 90.0768 199.718 89.707 199.938 89.2517C200.159 88.7965 200.269 88.3092 200.269 87.79C200.269 87.2707 200.159 86.7941 199.938 86.3602C199.718 85.9263 199.369 85.5813 198.893 85.3252C198.423 85.0621 197.808 84.9305 197.047 84.9305H192.811V83.2446ZM215.835 90.7775V92.4526H207.609V90.7775H215.835ZM208.025 76.9175V92.4526H205.966V76.9175H208.025ZM214.747 83.5967V85.2719H207.609V83.5967H214.747ZM215.729 76.9175V78.6033H207.609V76.9175H215.729ZM224.018 84.9945H222.172V83.6821H223.944C224.726 83.6821 225.359 83.5718 225.843 83.3513C226.327 83.1308 226.679 82.825 226.899 82.4337C227.12 82.0425 227.23 81.5908 227.23 81.0787C227.23 80.5879 227.109 80.1397 226.867 79.7343C226.625 79.3217 226.252 78.9945 225.747 78.7527C225.242 78.5037 224.591 78.3792 223.794 78.3792C223.197 78.3792 222.656 78.493 222.172 78.7207C221.689 78.9412 221.305 79.2506 221.02 79.6489C220.736 80.0402 220.593 80.4918 220.593 81.004H218.534C218.534 80.3425 218.673 79.7485 218.95 79.2221C219.228 78.6887 219.608 78.237 220.092 77.8671C220.576 77.4901 221.134 77.202 221.767 77.0028C222.407 76.8037 223.083 76.7041 223.794 76.7041C224.627 76.7041 225.381 76.8001 226.056 76.9922C226.732 77.1771 227.312 77.4545 227.795 77.8244C228.279 78.1943 228.649 78.6531 228.905 79.2008C229.161 79.7485 229.289 80.3851 229.289 81.1107C229.289 81.6442 229.165 82.1457 228.916 82.6151C228.667 83.0846 228.311 83.4972 227.849 83.8528C227.386 84.2085 226.832 84.4894 226.184 84.6957C225.537 84.8949 224.815 84.9945 224.018 84.9945ZM222.172 84.0875H224.018C224.893 84.0875 225.672 84.1765 226.355 84.3543C227.038 84.5321 227.614 84.7918 228.084 85.1332C228.553 85.4746 228.909 85.8979 229.15 86.4029C229.399 86.9008 229.524 87.4734 229.524 88.1207C229.524 88.8463 229.382 89.49 229.097 90.0519C228.82 90.6139 228.425 91.0905 227.913 91.4817C227.401 91.8729 226.792 92.1681 226.088 92.3673C225.391 92.5664 224.627 92.666 223.794 92.666C223.126 92.666 222.464 92.5807 221.81 92.41C221.162 92.2321 220.576 91.9618 220.049 91.5991C219.523 91.2292 219.1 90.7597 218.779 90.1906C218.467 89.6216 218.31 88.9387 218.31 88.1421H220.369C220.369 88.6613 220.512 89.1379 220.796 89.5718C221.088 90.0057 221.49 90.3543 222.002 90.6174C222.514 90.8735 223.111 91.0016 223.794 91.0016C224.577 91.0016 225.238 90.8806 225.779 90.6388C226.327 90.3898 226.743 90.0519 227.027 89.6252C227.319 89.1912 227.465 88.704 227.465 88.1634C227.465 87.6868 227.386 87.2742 227.23 86.9257C227.081 86.57 226.856 86.2784 226.558 86.0508C226.266 85.8232 225.9 85.656 225.459 85.5493C225.025 85.4355 224.52 85.3786 223.944 85.3786H222.172V84.0875ZM244.973 76.9175V92.4526H242.924V78.6033H235.263V92.4526H233.204V76.9175H244.973ZM259.451 90.7775V92.4526H251.224V90.7775H259.451ZM251.641 76.9175V92.4526H249.581V76.9175H251.641ZM258.363 83.5967V85.2719H251.224V83.5967H258.363ZM259.344 76.9175V78.6033H251.224V76.9175H259.344ZM265.03 76.9175V92.4526H262.971V76.9175H265.03ZM274.601 76.9175L267.858 85.4639H264.209L263.889 83.7568H266.631L272.051 76.9175H274.601ZM272.531 92.4526L266.695 85.1972L267.847 83.394L275.049 92.4526H272.531ZM279.935 88.8889L287.585 76.9175H289.645V92.4526H287.585V80.4705L279.935 92.4526H277.887V76.9175H279.935V88.8889Z" fill="white"/>
<path d="M247.201 14.6673C257.164 14.0067 265.082 20.3932 279.884 31.4278C277.894 25.1066 276.449 20.6519 272.5 16.7409C266.484 9.7518 257.547 4.87643 246.244 5.48539C236.932 5.9334 229.314 10.0504 223.612 16.5349C218.846 21.8401 216.784 27.9893 216.091 32.2367C230.642 20.298 238.221 14.8312 247.201 14.6673Z" fill="#0C57AD"/>
<path d="M247.201 14.6673C257.164 14.0067 265.082 20.3932 279.884 31.4278C277.894 25.1066 276.449 20.6519 272.5 16.7409C266.484 9.7518 257.547 4.87643 246.244 5.48539C236.932 5.9334 229.314 10.0504 223.612 16.5349C218.846 21.8401 216.784 27.9893 216.091 32.2367C230.642 20.298 238.221 14.8312 247.201 14.6673Z" fill="url(#paint0_linear_165_206)"/>
<path d="M275.782 31.7562C261.898 21.2145 255.094 16.8941 247.885 17.2066C244.072 17.1526 240.183 18.3498 233.731 22.3732C226.205 27.7742 219.553 32.7262 214.928 36.0113C224.786 41.323 230.304 42.7336 240.159 43.6293L236.877 40.1291C233.257 34.5725 232.913 31.1296 237.424 24.001C239.751 20.9692 242.707 19.1778 246.791 18.4658C248.864 18.111 250.928 18.4828 253.423 19.4714C259.01 22.6386 261.738 25.6544 262.312 32.9229C262.014 37.6045 260.68 39.7404 256.842 42.943C265.303 43.4002 270.252 41.7305 280.5 35.9573C279.9 34.9627 278.972 34.006 275.782 31.7562Z" fill="#01162D"/>
<path d="M220.672 51.5365C217.034 49.5323 216.155 46.2725 215.612 40.3497C223.989 43.5618 228.749 45.1894 239.407 46.4432C246.22 47.204 249.9 47.1406 256.295 46.4432C269.302 44.5256 273.263 43.0567 280.5 39.8006C280.266 42.8219 280.225 44.3318 279.201 47.4186C276.987 52.0305 273.264 54.3206 263.885 57.2868C255.664 59.3801 250.751 59.884 241.253 59.1398C232.38 57.973 227.87 56.2017 220.672 51.5365Z" fill="#0C57AD"/>
<path d="M220.672 51.5365C217.034 49.5323 216.155 46.2725 215.612 40.3497C223.989 43.5618 228.749 45.1894 239.407 46.4432C246.22 47.204 249.9 47.1406 256.295 46.4432C269.302 44.5256 273.263 43.0567 280.5 39.8006C280.266 42.8219 280.225 44.3318 279.201 47.4186C276.987 52.0305 273.264 54.3206 263.885 57.2868C255.664 59.3801 250.751 59.884 241.253 59.1398C232.38 57.973 227.87 56.2017 220.672 51.5365Z" fill="url(#paint1_linear_165_206)"/>
<path d="M228.945 64.3703C223.387 60.2474 221.968 57.5406 219.509 53.5954C225.92 58.0352 230.736 59.5768 238.86 60.9928C245.15 62.0973 248.726 61.9407 255.133 61.2674C263.845 59.9808 268.407 58.1858 276.261 54.0612C272.588 59.385 270.423 63.0109 263.064 66.9097C258.768 68.945 255.204 70.8897 248.022 70.6157C239.898 70.3826 234.581 68.2463 228.945 64.3703Z" fill="#0C57AD"/>
<path d="M259.577 32.5112C259.577 38.7653 254.526 43.8352 248.295 43.8352C242.064 43.8352 237.013 38.7653 237.013 32.5112C237.013 26.2571 242.064 21.1871 248.295 21.1871C254.526 21.1871 259.577 26.2571 259.577 32.5112Z" fill="#38B92C"/>
<path d="M259.577 32.5112C259.577 38.7653 254.526 43.8352 248.295 43.8352C242.064 43.8352 237.013 38.7653 237.013 32.5112C237.013 26.2571 242.064 21.1871 248.295 21.1871C254.526 21.1871 259.577 26.2571 259.577 32.5112Z" fill="url(#paint2_linear_165_206)"/>
<path d="M254.928 31.2758C254.928 34.5734 252.264 37.2467 248.979 37.2467C245.694 37.2467 243.03 34.5734 243.03 31.2758C243.03 27.9782 245.694 25.305 248.979 25.305C252.264 25.305 254.928 27.9782 254.928 31.2758Z" fill="black"/>
<path d="M243.702 32.2578C242.525 31.7481 242.026 31.2227 241.371 30.1263C241.325 29.0671 241.271 27.9854 241.666 26.9844C242.128 25.8109 242.75 24.9086 243.963 24.4021C245.352 23.8221 246.547 24.0771 247.87 24.6331L249.415 26.6486C249.326 28.3026 249.183 29.9896 247.871 31.1671C246.776 32.1501 245.555 32.3962 244.127 32.4421L243.702 32.2578Z" fill="#FEFDFD"/>
<defs>
<linearGradient id="paint0_linear_165_206" x1="256.675" y1="96.7243" x2="181.984" y2="60.9206" gradientUnits="userSpaceOnUse">
<stop stop-color="#0C57AD"/>
<stop offset="1" stop-color="white" stop-opacity="0"/>
</linearGradient>
<linearGradient id="paint1_linear_165_206" x1="251.342" y1="53.6834" x2="152.911" y2="-13.4828" gradientUnits="userSpaceOnUse">
<stop stop-color="#0C57AD"/>
<stop offset="1" stop-color="white" stop-opacity="0"/>
</linearGradient>
<linearGradient id="paint2_linear_165_206" x1="263.213" y1="45.7864" x2="211.734" y2="10.3467" gradientUnits="userSpaceOnUse">
<stop offset="0.234375" stop-color="#38B92C"/>
<stop offset="0.84375" stop-color="white" stop-opacity="0"/>
</linearGradient>
</defs>
</svg>
