<svg width="14" height="14" viewBox="0 0 14 14" fill="none" xmlns="http://www.w3.org/2000/svg">
<path d="M7 6.38455C6.175 6.38455 5.46875 6.0908 4.88125 5.5033C4.29375 4.9158 4 4.20955 4 3.38455C4 2.55953 4.29375 1.85327 4.88125 1.26577C5.46875 0.678271 6.175 0.384521 7 0.384521C7.825 0.384521 8.53125 0.678271 9.11875 1.26577C9.70625 1.85327 10 2.55953 10 3.38455C10 4.20955 9.70625 4.9158 9.11875 5.5033C8.53125 6.0908 7.825 6.38455 7 6.38455ZM0 13.6153V11.9691C0 11.5563 0.120192 11.1701 0.360575 10.8105C0.600958 10.4509 0.924358 10.1717 1.33078 9.973C2.27436 9.52043 3.21858 9.18101 4.16345 8.95472C5.10833 8.72844 6.05385 8.6153 7 8.6153C7.94615 8.6153 8.89167 8.72844 9.83655 8.95472C10.7814 9.18101 11.7256 9.52043 12.6692 9.973C13.0756 10.1717 13.399 10.4509 13.6394 10.8105C13.8798 11.1701 14 11.5563 14 11.9691V13.6153H0ZM1 12.6153H13V11.9691C13 11.7474 12.9285 11.539 12.7856 11.3441C12.6426 11.1493 12.4449 10.9845 12.1923 10.8499C11.3692 10.4512 10.5206 10.1458 9.6464 9.93357C8.77222 9.72139 7.89008 9.6153 7 9.6153C6.10992 9.6153 5.22778 9.72139 4.3536 9.93357C3.4794 10.1458 2.63077 10.4512 1.8077 10.8499C1.55513 10.9845 1.35737 11.1493 1.21442 11.3441C1.07148 11.539 1 11.7474 1 11.9691V12.6153ZM7 5.38455C7.55 5.38455 8.02083 5.18871 8.4125 4.79705C8.80417 4.40538 9 3.93455 9 3.38455C9 2.83455 8.80417 2.36371 8.4125 1.97205C8.02083 1.58038 7.55 1.38455 7 1.38455C6.45 1.38455 5.97917 1.58038 5.5875 1.97205C5.19583 2.36371 5 2.83455 5 3.38455C5 3.93455 5.19583 4.40538 5.5875 4.79705C5.97917 5.18871 6.45 5.38455 7 5.38455Z" fill="#083A74"/>
</svg>
