<svg width="12" height="20" viewBox="0 0 12 20" fill="none" xmlns="http://www.w3.org/2000/svg">
<path d="M1.61537 20C1.15512 20 0.770833 19.8458 0.4625 19.5375C0.154167 19.2292 0 18.8449 0 18.3846V1.61537C0 1.15512 0.154167 0.770833 0.4625 0.4625C0.770833 0.154167 1.15512 0 1.61537 0H10.3846C10.8449 0 11.2292 0.154167 11.5375 0.4625C11.8458 0.770833 12 1.15512 12 1.61537V18.3846C12 18.8449 11.8458 19.2292 11.5375 19.5375C11.2292 19.8458 10.8449 20 10.3846 20H1.61537ZM1 15.5385V18.3846C1 18.5385 1.0641 18.6795 1.1923 18.8077C1.32052 18.9359 1.46154 19 1.61537 19H10.3846C10.5385 19 10.6795 18.9359 10.8077 18.8077C10.9359 18.6795 11 18.5385 11 18.3846V15.5385L1 15.5385ZM6 18.0385C6.20642 18.0385 6.38622 17.9619 6.53942 17.8087C6.69263 17.6555 6.76923 17.4757 6.76923 17.2693C6.76923 17.0629 6.69263 16.883 6.53942 16.7298C6.38622 16.5766 6.20642 16.5 6 16.5C5.79358 16.5 5.61378 16.5766 5.46058 16.7298C5.30737 16.883 5.23077 17.0628 5.23077 17.2692C5.23077 17.4756 5.30737 17.6555 5.46058 17.8087C5.61378 17.9619 5.79358 18.0385 6 18.0385ZM1 14.5384H11V3.5H1V14.5384ZM1 2.5H11V1.61537C11 1.46154 10.9359 1.32052 10.8077 1.1923C10.6795 1.0641 10.5385 1 10.3846 1H1.61537C1.46154 1 1.32052 1.0641 1.1923 1.1923C1.0641 1.32052 1 1.46154 1 1.61537V2.5Z" fill="#083A74"/>
</svg>
