<svg width="14" height="28" viewBox="0 0 14 28" fill="none" xmlns="http://www.w3.org/2000/svg">
<path d="M1.1666 27.9998C1.01305 28.0007 0.860848 27.9712 0.718705 27.9132C0.576561 27.8551 0.447275 27.7696 0.338262 27.6614C0.228912 27.553 0.142119 27.4239 0.0828891 27.2818C0.023659 27.1396 -0.00683594 26.9871 -0.00683594 26.8331C-0.00683594 26.6791 0.023659 26.5266 0.0828891 26.3844C0.142119 26.2423 0.228912 26.1132 0.338262 26.0048L9.86993 16.4731C10.5254 15.8168 10.8935 14.9273 10.8935 13.9998C10.8935 13.0723 10.5254 12.1827 9.86993 11.5264L0.338262 1.99477C0.118574 1.77508 -0.0048449 1.47712 -0.0048449 1.16644C-0.0048449 0.85575 0.118574 0.55779 0.338262 0.338102C0.55795 0.118414 0.85591 -0.00500488 1.1666 -0.00500488C1.47728 -0.00500488 1.77524 0.118414 1.99493 0.338102L11.5266 9.86977C12.0698 10.4116 12.5008 11.0553 12.7949 11.764C13.089 12.4727 13.2404 13.2325 13.2404 13.9998C13.2404 14.7671 13.089 15.5268 12.7949 16.2355C12.5008 16.9442 12.0698 17.5879 11.5266 18.1298L1.99493 27.6614C1.88592 27.7696 1.75663 27.8551 1.61449 27.9132C1.47234 27.9712 1.32014 28.0007 1.1666 27.9998Z" fill="#4E4E4E"/>
</svg>
