<svg width="14" height="28" viewBox="0 0 14 28" fill="none" xmlns="http://www.w3.org/2000/svg">
<path d="M1.1666 27.9999C1.01305 28.0008 0.860848 27.9713 0.718705 27.9133C0.576561 27.8552 0.447275 27.7697 0.338262 27.6616C0.228912 27.5531 0.142119 27.4241 0.0828891 27.2819C0.023659 27.1397 -0.00683594 26.9872 -0.00683594 26.8332C-0.00683594 26.6792 0.023659 26.5267 0.0828891 26.3846C0.142119 26.2424 0.228912 26.1133 0.338262 26.0049L9.86993 16.4732C10.5254 15.817 10.8935 14.9274 10.8935 13.9999C10.8935 13.0724 10.5254 12.1828 9.86993 11.5266L0.338262 1.99489C0.118574 1.7752 -0.0048449 1.47724 -0.0048449 1.16656C-0.0048449 0.855872 0.118574 0.557912 0.338262 0.338224C0.55795 0.118536 0.85591 -0.00488281 1.1666 -0.00488281C1.47728 -0.00488281 1.77524 0.118536 1.99493 0.338224L11.5266 9.86989C12.0698 10.4118 12.5008 11.0555 12.7949 11.7642C13.089 12.4729 13.2404 13.2326 13.2404 13.9999C13.2404 14.7672 13.089 15.5269 12.7949 16.2356C12.5008 16.9443 12.0698 17.588 11.5266 18.1299L1.99493 27.6616C1.88592 27.7697 1.75663 27.8552 1.61449 27.9133C1.47234 27.9713 1.32014 28.0008 1.1666 27.9999Z" fill="#F7FAFF"/>
</svg>
