<svg width="28" height="28" viewBox="0 0 28 28" fill="none" xmlns="http://www.w3.org/2000/svg">
<path d="M26.6367 27.5833L16.0448 16.9915C15.2171 17.7247 14.2563 18.2866 13.1626 18.6771C12.0688 19.0676 10.969 19.2628 9.86319 19.2628C7.20328 19.2628 4.95211 18.3435 3.10969 16.5047C1.26728 14.6659 0.346069 12.4225 0.346069 9.77447C0.346069 7.12638 1.26546 4.88123 3.10424 3.03901C4.94299 1.19676 7.18585 0.275635 9.83282 0.275635C12.4798 0.275635 14.7285 1.19552 16.5789 3.0353C18.4294 4.87508 19.3547 7.11854 19.3547 9.76568C19.3547 10.9148 19.1495 12.0367 18.7393 13.1314C18.329 14.2261 17.7677 15.1759 17.0555 15.9808L27.6538 26.5449L26.6367 27.5833ZM9.85678 17.8526C12.1247 17.8526 14.0396 17.0736 15.6015 15.5155C17.1634 13.9575 17.9444 12.042 17.9444 9.76922C17.9444 7.49644 17.1634 5.58103 15.6015 4.02297C14.0396 2.46491 12.1247 1.68589 9.85678 1.68589C7.5853 1.68589 5.66736 2.46491 4.10294 4.02297C2.53856 5.58103 1.75636 7.49644 1.75636 9.76922C1.75636 12.042 2.53856 13.9575 4.10294 15.5155C5.66736 17.0736 7.5853 17.8526 9.85678 17.8526Z" fill="#083A74"/>
</svg>
