<svg width="40" height="40" viewBox="0 0 40 40" fill="none" xmlns="http://www.w3.org/2000/svg">
<mask id="mask0_59_156" style="mask-type:alpha" maskUnits="userSpaceOnUse" x="0" y="0" width="40" height="40">
<rect width="40" height="40" fill="#D9D9D9"/>
</mask>
<g mask="url(#mask0_59_156)">
<path d="M32.6367 33.5833L22.0448 22.9915C21.2171 23.7247 20.2563 24.2866 19.1626 24.6771C18.0688 25.0676 16.969 25.2628 15.8632 25.2628C13.2033 25.2628 10.9521 24.3435 9.10969 22.5047C7.26728 20.6659 6.34607 18.4225 6.34607 15.7745C6.34607 13.1264 7.26546 10.8812 9.10424 9.03901C10.943 7.19676 13.1858 6.27563 15.8328 6.27563C18.4798 6.27563 20.7285 7.19552 22.5789 9.0353C24.4294 10.8751 25.3547 13.1185 25.3547 15.7657C25.3547 16.9148 25.1495 18.0367 24.7393 19.1314C24.329 20.2261 23.7677 21.1759 23.0555 21.9808L33.6538 32.5449L32.6367 33.5833ZM15.8568 23.8526C18.1247 23.8526 20.0396 23.0736 21.6015 21.5155C23.1634 19.9575 23.9444 18.042 23.9444 15.7692C23.9444 13.4964 23.1634 11.581 21.6015 10.023C20.0396 8.46491 18.1247 7.68589 15.8568 7.68589C13.5853 7.68589 11.6674 8.46491 10.1029 10.023C8.53856 11.581 7.75636 13.4964 7.75636 15.7692C7.75636 18.042 8.53856 19.9575 10.1029 21.5155C11.6674 23.0736 13.5853 23.8526 15.8568 23.8526Z" fill="#083A74"/>
</g>
</svg>
