<svg width="30" height="32" viewBox="0 0 30 32" fill="none" xmlns="http://www.w3.org/2000/svg">
<path d="M9.26127 31.186C8.58838 31.186 8.0237 30.9537 7.56723 30.4891C7.11075 30.0245 6.88252 29.4529 6.88252 28.7741C6.88252 28.0953 7.11263 27.5256 7.57285 27.065C8.03307 26.6044 8.59949 26.374 9.2721 26.374C9.94474 26.374 10.5131 26.6063 10.9771 27.0709C11.4411 27.5355 11.6731 28.1071 11.6731 28.7859C11.6731 29.4647 11.4409 30.0344 10.9763 30.495C10.5117 30.9557 9.94002 31.186 9.26127 31.186ZM24.9023 31.186C24.2294 31.186 23.6647 30.9537 23.2083 30.4891C22.7518 30.0245 22.5236 29.4529 22.5236 28.7741C22.5236 28.0953 22.7537 27.5256 23.2139 27.065C23.6741 26.6044 24.2405 26.374 24.9131 26.374C25.5858 26.374 26.1541 26.6063 26.6181 27.0709C27.0822 27.5355 27.3142 28.1071 27.3142 28.7859C27.3142 29.4647 27.0819 30.0344 26.6173 30.495C26.1527 30.9557 25.581 31.186 24.9023 31.186ZM6.66673 4.90392L11.2906 14.6133H22.4424C22.6347 14.6133 22.8092 14.5652 22.9659 14.4691C23.1226 14.3729 23.2472 14.2394 23.3398 14.0685L27.9018 5.80137C28.03 5.56632 28.0407 5.35799 27.9339 5.17637C27.827 4.99474 27.6454 4.90392 27.389 4.90392H6.66673ZM5.94664 3.49367H27.6394C28.3636 3.49367 28.9084 3.79014 29.2737 4.38308C29.639 4.97603 29.656 5.58554 29.3249 6.21162L24.6573 14.7282C24.4108 15.126 24.0962 15.4413 23.7137 15.6742C23.3312 15.9071 22.921 16.0236 22.4831 16.0236H10.5001L8.31202 20.045C8.15532 20.3014 8.15355 20.5792 8.30668 20.8783C8.45982 21.1774 8.69664 21.327 9.01714 21.327H27.3142V22.7372H9.13894C8.1938 22.7372 7.5022 22.377 7.06414 21.6566C6.62611 20.9362 6.62327 20.1782 7.0556 19.3826L9.69023 14.6582L3.46802 1.577H0.468018V0.166748H4.36973L5.94664 3.49367Z" fill="#083A74"/>
</svg>
