<svg width="40" height="40" viewBox="0 0 40 40" fill="none" xmlns="http://www.w3.org/2000/svg">
<path fill-rule="evenodd" clip-rule="evenodd" d="M2.74979 19.2705C13.4872 14.5924 20.6471 11.5083 24.2296 10.0182C34.4584 5.76371 36.5838 5.02466 37.9692 5.00026C38.2739 4.99489 38.9551 5.0704 39.3964 5.42849C39.769 5.73084 39.8716 6.13928 39.9206 6.42595C39.9697 6.71262 40.0308 7.36566 39.9822 7.87592C39.4279 13.7 37.0295 27.8335 35.8093 34.3565C35.293 37.1167 34.2763 38.0421 33.2921 38.1327C31.1532 38.3295 29.529 36.7192 27.4573 35.3612C24.2156 33.2362 22.3842 31.9134 19.2376 29.8398C15.6011 27.4433 17.9585 26.1262 20.0309 23.9737C20.5733 23.4104 29.9974 14.8384 30.1798 14.0608C30.2026 13.9635 30.2238 13.601 30.0085 13.4096C29.7931 13.2182 29.4752 13.2836 29.2459 13.3357C28.9207 13.4095 23.742 16.8324 13.7097 23.6045C12.2398 24.6139 10.9083 25.1057 9.7154 25.0799C8.40029 25.0515 5.87055 24.3363 3.98995 23.725C1.68332 22.9752 -0.149946 22.5788 0.00969038 21.3054C0.0928388 20.6422 1.00621 19.9639 2.74979 19.2705Z" fill="#E7E7E7"/>
</svg>
