<svg width="1440" height="3835" viewBox="0 0 1440 3835" fill="none" xmlns="http://www.w3.org/2000/svg">
<path d="M1365.75 1076.18L1050 1258.35L1365.75 1440.52V1076.18Z" stroke="#38B92C" stroke-width="4"/>
<rect x="1.19507" y="2.56284" width="405.744" height="405.966" transform="matrix(-0.342234 0.939615 0.93977 0.341807 291.196 1229.43)" stroke="#FFA83E" stroke-opacity="0.8" stroke-width="4"/>
<path d="M74 1225.87C74 1307.55 140.261 1373.77 222 1373.77C303.739 1373.77 370 1307.55 370 1225.87C370 1144.19 303.739 1077.98 222 1077.98C140.261 1077.98 74 1144.19 74 1225.87Z" stroke="#0C57AD" stroke-width="4"/>
<path d="M74.25 2551.82L389.998 2369.65L74.25 2187.48L74.25 2551.82Z" stroke="#38B92C" stroke-width="4"/>
<rect x="-1.19507" y="-2.56284" width="405.744" height="405.966" transform="matrix(0.342234 -0.939615 -0.93977 -0.341807 1144.81 2394.57)" stroke="#FFA83E" stroke-opacity="0.8" stroke-width="4"/>
<path d="M1366 2402.13C1366 2320.45 1299.74 2254.23 1218 2254.23C1136.26 2254.23 1070 2320.45 1070 2402.13C1070 2483.81 1136.26 2550.02 1218 2550.02C1299.74 2550.02 1366 2483.81 1366 2402.13Z" stroke="#0C57AD" stroke-width="4"/>
<path d="M1365.75 3381.82L1050 3199.65L1365.75 3017.48V3381.82Z" stroke="#38B92C" stroke-width="4"/>
<rect x="1.19507" y="-2.56284" width="405.744" height="405.966" transform="matrix(-0.342234 -0.939615 0.93977 -0.341807 296.013 3226.81)" stroke="#FFA83E" stroke-opacity="0.8" stroke-width="4"/>
<path d="M74 3232.13C74 3150.45 140.261 3084.23 222 3084.23C303.739 3084.23 370 3150.45 370 3232.13C370 3313.81 303.739 3380.02 222 3380.02C140.261 3380.02 74 3313.81 74 3232.13Z" stroke="#0C57AD" stroke-width="4"/>
<path d="M74.25 3566.18L389.998 3748.35L74.25 3930.52L74.25 3566.18Z" stroke="#38B92C" stroke-width="4"/>
<rect x="-1.19507" y="2.56284" width="405.744" height="405.966" transform="matrix(0.342234 0.939615 -0.93977 0.341807 1149.62 3721.68)" stroke="#FFA83E" stroke-opacity="0.8" stroke-width="4"/>
<path d="M1366 3715.87C1366 3797.55 1299.74 3863.77 1218 3863.77C1136.26 3863.77 1070 3797.55 1070 3715.87C1070 3634.19 1136.26 3567.98 1218 3567.98C1299.74 3567.98 1366 3634.19 1366 3715.87Z" stroke="#0C57AD" stroke-width="4"/>
<path d="M72.25 246.18L387.998 428.348L72.25 610.517L72.25 246.18Z" stroke="#38B92C" stroke-width="4"/>
<rect x="-1.19507" y="2.56284" width="405.744" height="405.966" transform="matrix(0.342234 0.939615 -0.93977 0.341807 1147.62 401.679)" stroke="#FFA83E" stroke-opacity="0.8" stroke-width="4"/>
<path d="M1364 395.872C1364 477.55 1297.74 543.765 1216 543.765C1134.26 543.765 1068 477.55 1068 395.872C1068 314.193 1134.26 247.978 1216 247.978C1297.74 247.978 1364 314.193 1364 395.872Z" stroke="#0C57AD" stroke-width="4"/>
</svg>
